<?xml version="1.0" encoding="UTF-8" standalone="no"?><!DOCTYPE svg PUBLIC "-//W3C//DTD SVG 1.1//EN"
    "http://www.w3.org/Graphics/SVG/1.1/DTD/svg11.dtd">
<svg width="100%" height="100%" viewBox="0 0 708 928" version="1.1" xmlns="http://www.w3.org/2000/svg"
     xml:space="preserve"
     style="fill-rule:evenodd;clip-rule:evenodd;stroke-linecap:round;stroke-linejoin:round;stroke-miterlimit:1.5;"><g><g id="vector"><g id="Hair"><path d="M189.423,343.704c0,0 -67.745,7.308 -61.722,-38.848c4.292,-32.893 52.787,-20.904 58.038,-38.873c6.708,-22.955 -28.821,-36.594 -12.176,-65.587c16.645,-28.993 51.064,-8.66 67.189,-23.542c16.126,-14.882 -4.608,-47.218 19.196,-76.173c24.368,-29.641 64.758,-13.188 64.758,-13.188l0,0.232c-18.369,-83.552 97.075,-72.97 118.382,-20.978c41.544,4.635 43.535,37.167 38.947,64.671c0,-0 30.792,-2.459 43.781,11.274c20.031,21.18 9.706,67.926 17.112,79.377c7.407,11.451 34.292,-2.206 43.089,17.841c8.796,20.048 -14.24,24.029 -4.744,39.457c9.497,15.427 39.959,10.372 40.124,36.538c0.165,26.167 -51.801,27.799 -51.801,27.799l-380.173,0Z" style="fill:#effcff;"/><circle
    cx="462.934" cy="38.231" r="37.901" style="fill:#effcff;"/></g><g id="Body"><g id="Torso"><path d="M489.276,359.713l-7.56,-16.018c0,0 87.88,0.009 88.816,0c-48.447,-101.278 -74.044,-137.756 -139.542,-135.126l-93.11,-0c-59.192,-0.999 -89.04,7.296 -147.6,135.126c0,0 89.283,1.962 89.756,1.927c-77.4,197.588 -109.9,298.189 65.684,290.236c169.037,-17.551 202.946,-118.171 143.556,-276.145Z" style="fill:#c96978;"/><path
    d="M283.347,337.497c5.379,-13.729 7.662,-19.802 13.419,-34.464c-2.715,34.742 30.319,59.72 56.595,56.387"
    style="fill:none;stroke:#000;stroke-width:7.32px;"/><path d="M462.302,302.558l17.189,34.939"
                                                              style="fill:none;stroke:#000;stroke-width:7.32px;"/></g>
    <path id="Right-arm"
          d="M190.284,343.704c0.449,-0.147 -106.664,233.228 -106.664,233.228c-0,0 -106.601,52.082 -79.016,52.224c27.584,0.143 157.273,-3.107 157.273,-3.107l118.159,-280.79c0,0 -90.202,-1.407 -89.752,-1.555Z"
          style="fill:#ffc9b1;"/>
    <g id="Left-arm"><path d="M546.401,497.235c17.096,11.328 31.997,21.428 56.361,3.068c35.503,-26.752 10.26,-67.316 -32.545,-156.797l-88.062,-0l8.699,18.934c-12.961,-4.005 -25.246,-6.64 -35.854,-7.613c-57.358,-5.26 -91.695,16.496 -101.203,49.202c-9.508,32.705 192.604,93.206 192.604,93.206Z" style="fill:#ffc9b1;"/>
        <path d="M431.682,417.466c0,0 58.897,21.909 70.29,-1.938" style="fill:none;stroke:#000;stroke-width:7.32px;"/>
        <path d="M497.699,364.564c36.491,11.277 71.491,31.295 96.348,57.802"
              style="fill:none;stroke:#000;stroke-width:7.32px;"/></g>
    <g id="Left-leg"><path d="M377.179,927.647c35.439,1.582 54.072,-81.578 66.544,-148.002l-89.664,-1.687c-0,-0 -33.532,147.161 23.12,149.689" style="fill:#ffc9b1;"/>
        <path
            d="M479.402,623.388l-105.218,-84.789l-71.439,239.359l140.978,1.687c8.019,-42.708 35.679,-156.257 35.679,-156.257"
            style="fill:#003339;"/></g>
    <g id="Right-leg"><path d="M494.877,635.858l57.221,46.111c-0,0 156.975,19.454 155.851,-14.811c-1.123,-34.265 -102.605,-58.237 -102.131,-57.951c0.474,0.286 -51.073,-42.848 -50.044,-41.655" style="fill:#ffc9b1;"/>
        <path
            d="M225.684,596.389c-16.065,-29.465 -19.794,-138.564 98.71,-185.114c9.681,-3.803 19.512,-6.148 29.403,-7.246c111.173,-12.35 229.934,132.682 229.934,132.682l-88.492,99.439l-121.055,-97.551l-28.464,97.259l28.464,-97.259l-28.464,97.551c-0,0 -85.569,23.454 -120.036,-39.761Z"
            style="fill:#003339;"/>
        <path d="M468.76,614.445l-94.576,-75.846l-24.839,84.649" style="fill:none;stroke:#000;stroke-width:7.32px;"/></g></g><g
    id="Face"><path d="M339.662,201.787c1.487,1.106 -10.192,57.332 35.015,63.502c45.207,6.169 50.357,-30.823 50.357,-30.823l8.478,-56.846c0,0 22.594,3.465 24.37,-16.545c2.166,-24.394 -23.635,-23.528 -38.955,-25.16c-66.069,-7.038 -93.405,-46.371 -93.405,-46.371c-5.815,55.729 -14.929,90.617 14.14,112.243Z" style="fill:#ffc9b1;"/>
    <g id="Face1"><path d="M351.212,205.372c-0,0 25.464,9.096 41.647,-2.461" style="fill:none;stroke:#000;stroke-width:7.32px;"/>
        <path d="M359.029,132.661l-2.817,22.113l6.183,0.167" style="fill:none;stroke:#000;stroke-width:7.32px;"/>
        <circle cx="343.172" cy="132.661" r="6.002"/>
        <path d="M356.212,176.997c0,0 21.486,5.749 29.864,-7.685" style="fill:none;stroke:#000;stroke-width:7.32px;"/>
        <circle cx="386.076" cy="138.662" r="6.002"/></g></g></g></g></svg>