<?xml version="1.0" encoding="UTF-8"?>
<!-- Generator: Adobe Illustrator 24.1.0, SVG Export Plug-In . SVG Version: 6.00 Build 0)  -->
<svg xmlns="http://www.w3.org/2000/svg" version="1.1" x="0px" y="0px" viewBox="0 0 779.21 307.86"
     style="enable-background:new 0 0 779.21 307.86;" xml:space="preserve">
<style type="text/css">
	.st0{display:none;}
	.st1{display:inline;fill:none;stroke:#D823A5;stroke-width:4;stroke-miterlimit:10;}
	.st2{display:inline;fill:none;stroke:#D823A5;stroke-width:1.5;stroke-miterlimit:10;}
</style>
    <g id="Layer_3" class="st0">
	<path class="st1"
          d="M-3235.33-603.48L-3235.33-603.48c-58.71,0-106.3,47.59-106.3,106.3v79.72c0,58.71,47.59,106.3,106.3,106.3h0   c58.71,0,106.3-47.59,106.3-106.3v-79.72C-3129.04-555.89-3176.63-603.48-3235.33-603.48z"/>
        <path class="st2"
              d="M-3235.33-317.53c-55.1,0-99.92-44.82-99.92-99.92v-79.72c0-55.1,44.82-99.92,99.92-99.92   s99.92,44.82,99.92,99.92v79.72C-3135.41-362.36-3180.24-317.53-3235.33-317.53z"/>
        <path class="st2"
              d="M-3235.33-362.18c-30.48,0-55.27-24.8-55.27-55.27v-79.72c0-30.48,24.8-55.28,55.27-55.28   s55.27,24.8,55.27,55.28v79.72C-3180.06-386.97-3204.86-362.18-3235.33-362.18z"/>
        <path class="st1"
              d="M-3851.73-603.48L-3851.73-603.48c-58.71,0-106.3,47.59-106.3,106.3v79.72c0,58.71,47.59,106.3,106.3,106.3   l0,0c58.71,0,106.3-47.59,106.3-106.3v-79.72C-3745.43-555.89-3793.02-603.48-3851.73-603.48z"/>
        <path class="st2"
              d="M-3851.73-317.53c-55.1,0-99.92-44.82-99.92-99.92v-79.72c0-55.1,44.82-99.92,99.92-99.92   s99.92,44.82,99.92,99.92v79.72C-3751.81-362.36-3796.64-317.53-3851.73-317.53z"/>
        <path class="st2"
              d="M-3851.73-362.18c-30.48,0-55.27-24.8-55.27-55.27v-79.72c0-30.48,24.8-55.28,55.27-55.28   s55.27,24.8,55.27,55.28v79.72C-3796.46-386.97-3821.25-362.18-3851.73-362.18z"/>
        <path class="st1"
              d="M-5059.77-603.48L-5059.77-603.48c-58.71,0-106.3,47.59-106.3,106.3v79.72c0,58.71,47.59,106.3,106.3,106.3h0   c58.71,0,106.3-47.59,106.3-106.3v-79.72C-4953.47-555.89-5001.06-603.48-5059.77-603.48z"/>
        <path class="st2"
              d="M-5059.77-317.53c-55.1,0-99.92-44.82-99.92-99.92v-79.72c0-55.1,44.82-99.92,99.92-99.92   s99.92,44.82,99.92,99.92v79.72C-4959.84-362.36-5004.67-317.53-5059.77-317.53z"/>
        <path class="st2"
              d="M-5059.77-362.18c-30.48,0-55.27-24.8-55.27-55.27v-79.72c0-30.48,24.8-55.28,55.27-55.28   s55.27,24.8,55.27,55.28v79.72C-5004.49-386.97-5029.29-362.18-5059.77-362.18z"/>
        <path class="st1"
              d="M-4460.31-603.48L-4460.31-603.48c-58.71,0-106.3,47.59-106.3,106.3v79.72c0,58.71,47.59,106.3,106.3,106.3   l0,0c58.71,0,106.3-47.59,106.3-106.3v-79.72C-4354.01-555.89-4401.6-603.48-4460.31-603.48z"/>
        <path class="st2"
              d="M-4460.31-317.53c-55.1,0-99.92-44.82-99.92-99.92v-79.72c0-55.1,44.82-99.92,99.92-99.92   s99.92,44.82,99.92,99.92v79.72C-4360.39-362.36-4405.21-317.53-4460.31-317.53z"/>
        <path class="st2"
              d="M-4460.31-362.18c-30.48,0-55.27-24.8-55.27-55.27v-79.72c0-30.48,24.8-55.28,55.27-55.28   s55.27,24.8,55.27,55.28v79.72C-4405.04-386.97-4429.83-362.18-4460.31-362.18z"/>
</g>
    <g id="Layer_1">
	<g>
		<path d="M317.01,44.31c10.41,0,16.94,1.33,22.27,6.29c4.36,4.11,6.41,9.32,6.41,15.97c0,3.15-0.48,6.41-2.42,9.56    c-1.81,3.15-4.23,4.72-6.05,5.57c1.45,0.36,6.41,1.69,10.41,5.81c4.36,4.6,5.32,10.16,5.32,15.12c0,5.81-1.45,10.41-5.32,14.52    c-6.41,6.78-16.46,7.87-22.63,7.87h-20.21V44.31H317.01z M317.13,79.04h3.75c3.03,0,7.14-0.36,10.04-3.15    c2.78-2.66,3.15-6.41,3.15-9.2c0-2.42-0.36-5.32-2.9-7.74c-2.78-2.66-6.29-3.02-9.8-3.02h-4.24V79.04z M317.13,113.4h7.5    c3.51,0,9.08-0.61,12.22-3.15c2.42-1.94,3.99-5.32,3.99-8.95c0-3.27-1.21-6.41-3.27-8.47c-3.39-3.27-8.35-3.63-12.71-3.63h-7.74    V113.4z"/>
        <path d="M411.87,113.4c-2.18,3.87-5.32,7.26-8.59,9.32c-4.12,2.66-9.56,3.87-15.01,3.87c-6.78,0-12.34-1.69-17.18-6.53    s-7.5-11.86-7.5-19.48c0-7.87,2.78-15.49,8.11-20.93c4.23-4.24,9.8-6.9,17.06-6.9c8.11,0,13.31,3.51,16.34,6.65    c6.53,6.78,7.14,16.21,7.14,21.54v1.45h-36.54c0.24,3.63,1.81,7.74,4.36,10.29c2.78,2.78,6.17,3.27,9.07,3.27    c3.27,0,5.69-0.73,8.11-2.54c2.06-1.57,3.63-3.63,4.72-5.57L411.87,113.4z M400.14,92.71c-0.48-2.78-1.82-5.2-3.63-6.9    c-1.57-1.45-4.11-2.9-7.99-2.9c-4.11,0-6.78,1.69-8.35,3.27c-1.69,1.57-3.02,3.99-3.63,6.53H400.14z"/>
        <path d="M424.58,74.08h11.86v4.6c1.33-1.57,3.27-3.27,4.96-4.24c2.3-1.33,4.6-1.69,7.26-1.69c2.9,0,6.05,0.48,9.32,2.42    l-4.84,10.77c-2.66-1.69-4.84-1.81-6.05-1.81c-2.54,0-5.08,0.36-7.38,2.78c-3.27,3.51-3.27,8.35-3.27,11.74v26.38h-11.86V74.08z"/>
        <path d="M498.27,74.08h11.86v46.83c0,11.98-1.33,20.57-8.35,26.5c-3.27,2.66-8.59,5.44-16.94,5.44c-5.93,0-11.86-1.45-16.7-6.29    c-3.75-3.75-6.66-9.68-7.5-15.85h11.5c0.48,2.78,1.94,6.05,3.75,7.99c1.45,1.57,4.36,3.51,9.2,3.51c4.96,0,7.87-1.94,9.32-3.39    c3.87-3.75,3.87-9.08,3.87-12.83v-6.66c-5.45,6.9-12.1,7.26-15.49,7.26c-6.54,0-11.98-1.82-16.82-6.9    c-4.6-4.84-7.62-11.74-7.62-20.21c0-9.32,3.51-15.73,7.5-19.72c5.08-5.2,11.13-7.02,17.3-7.02c5.08,0,10.77,1.69,15.12,6.9V74.08z     M475.64,86.78c-3.03,2.78-5.2,7.5-5.2,12.95c0,5.08,1.94,10.04,5.08,12.83c2.18,1.94,5.45,3.39,9.07,3.39    c3.75,0,7.02-1.09,9.92-4.11c3.51-3.75,4.48-8.11,4.48-11.98c0-5.69-1.82-9.92-4.84-12.83c-2.9-2.9-6.17-3.63-9.56-3.63    C481.33,83.39,478.3,84.24,475.64,86.78z"/>
        <path d="M570.75,113.4c-2.18,3.87-5.32,7.26-8.59,9.32c-4.12,2.66-9.56,3.87-15.01,3.87c-6.78,0-12.34-1.69-17.18-6.53    s-7.5-11.86-7.5-19.48c0-7.87,2.78-15.49,8.11-20.93c4.23-4.24,9.8-6.9,17.06-6.9c8.11,0,13.31,3.51,16.34,6.65    c6.53,6.78,7.14,16.21,7.14,21.54v1.45h-36.54c0.24,3.63,1.81,7.74,4.36,10.29c2.78,2.78,6.17,3.27,9.07,3.27    c3.27,0,5.69-0.73,8.11-2.54c2.06-1.57,3.63-3.63,4.72-5.57L570.75,113.4z M559.01,92.71c-0.48-2.78-1.82-5.2-3.63-6.9    c-1.57-1.45-4.11-2.9-7.99-2.9c-4.11,0-6.78,1.69-8.35,3.27c-1.69,1.57-3.02,3.99-3.63,6.53H559.01z"/>
        <path d="M605.71,87.51c-1.21-1.94-3.51-4.36-7.26-4.36c-1.7,0-2.9,0.61-3.63,1.33c-0.61,0.61-1.09,1.57-1.09,2.66    c0,1.33,0.61,2.18,1.7,2.9c0.72,0.48,1.45,0.73,3.99,2.06l6.05,3.03c2.66,1.33,5.2,2.66,7.14,4.72c2.78,2.78,3.75,5.93,3.75,9.44    c0,4.6-1.7,8.59-4.48,11.62c-3.99,4.36-8.95,5.69-14.28,5.69c-3.27,0-7.38-0.48-11.01-3.27c-2.9-2.18-5.32-5.69-6.53-9.32    l9.68-4.6c0.61,1.69,1.69,3.87,2.78,4.84c0.73,0.73,2.42,1.94,5.2,1.94c1.81,0,3.75-0.61,4.84-1.69c0.97-0.97,1.69-2.54,1.69-3.99    s-0.48-2.66-1.57-3.87c-1.45-1.45-3.15-2.3-5.08-3.15l-4.36-2.06c-2.3-1.09-5.08-2.42-7.02-4.36c-2.66-2.54-3.63-5.32-3.63-8.59    c0-4.11,1.57-8.11,4.23-10.89c2.3-2.42,6.17-4.84,12.46-4.84c3.63,0,6.54,0.73,9.44,2.66c1.69,1.09,3.99,3.03,5.81,6.29    L605.71,87.51z"/>
        <path d="M672.63,113.4c-2.18,3.87-5.32,7.26-8.59,9.32c-4.11,2.66-9.56,3.87-15,3.87c-6.78,0-12.34-1.69-17.18-6.53    c-4.84-4.84-7.5-11.86-7.5-19.48c0-7.87,2.78-15.49,8.11-20.93c4.24-4.24,9.8-6.9,17.06-6.9c8.11,0,13.31,3.51,16.33,6.65    c6.54,6.78,7.14,16.21,7.14,21.54v1.45h-36.54c0.24,3.63,1.81,7.74,4.36,10.29c2.78,2.78,6.17,3.27,9.07,3.27    c3.27,0,5.69-0.73,8.11-2.54c2.06-1.57,3.63-3.63,4.72-5.57L672.63,113.4z M660.89,92.71c-0.48-2.78-1.81-5.2-3.63-6.9    c-1.57-1.45-4.12-2.9-7.99-2.9c-4.12,0-6.78,1.69-8.35,3.27c-1.69,1.57-3.03,3.99-3.63,6.53H660.89z"/>
        <path d="M685.21,74.08h11.86v4.72c5.08-5.69,10.89-6.05,13.79-6.05c9.44,0,13.43,4.72,15,6.9c1.94,2.78,3.15,6.29,3.15,14.16    v31.22h-11.86V96.7c0-12.95-4.84-13.31-9.32-13.31c-5.32,0-10.77,0.73-10.77,17.18v24.44h-11.86V74.08z"/>
        <path d="M742.56,93.07h29.04v12.34h-29.04V93.07z"/>
        <path d="M324.88,218.71c-1.21-1.94-3.51-4.36-7.26-4.36c-1.69,0-2.9,0.61-3.63,1.33c-0.6,0.61-1.09,1.57-1.09,2.66    c0,1.33,0.61,2.18,1.69,2.9c0.73,0.48,1.45,0.73,3.99,2.06l6.05,3.02c2.66,1.33,5.2,2.66,7.14,4.72c2.78,2.78,3.75,5.93,3.75,9.44    c0,4.6-1.69,8.59-4.48,11.62c-3.99,4.36-8.96,5.69-14.28,5.69c-3.27,0-7.38-0.48-11.01-3.27c-2.9-2.18-5.32-5.69-6.54-9.32    l9.68-4.6c0.61,1.69,1.7,3.87,2.78,4.84c0.73,0.73,2.42,1.94,5.2,1.94c1.82,0,3.75-0.61,4.84-1.69c0.97-0.97,1.7-2.54,1.7-3.99    s-0.48-2.66-1.57-3.87c-1.45-1.45-3.14-2.3-5.08-3.15l-4.36-2.06c-2.3-1.09-5.08-2.42-7.02-4.36c-2.66-2.54-3.63-5.32-3.63-8.59    c0-4.11,1.57-8.11,4.24-10.89c2.3-2.42,6.17-4.84,12.46-4.84c3.63,0,6.53,0.73,9.44,2.66c1.69,1.09,3.99,3.03,5.81,6.29    L324.88,218.71z"/>
        <path d="M358.39,216.17v40.05h-11.86v-40.05h-4.96v-10.89h4.96v-18.63h11.86v18.63h9.08v10.89H358.39z"/>
        <path d="M381.38,176.6c4.36,0,7.62,3.27,7.62,7.62c0,4.36-3.27,7.62-7.62,7.62s-7.62-3.27-7.62-7.62    C373.76,179.87,377.02,176.6,381.38,176.6z M387.31,205.28v50.94h-11.86v-50.94H387.31z"/>
        <path d="M415.38,216.17v40.05h-11.86v-40.05h-5.08v-10.89h5.08v-17.67c0-7.87,2.06-12.83,4.96-15.97c2.18-2.3,5.93-4.96,12.1-4.96    c2.54,0,5.08,0.36,7.62,1.45v11.74c-2.42-1.45-3.99-1.81-5.69-1.81c-1.45,0-3.63,0.24-5.2,1.94c-0.61,0.61-1.94,2.42-1.94,6.05    v19.24h12.83v10.89H415.38z"/>
        <path d="M450.95,216.17v40.05h-11.86v-40.05h-4.96v-10.89h4.96v-18.63h11.86v18.63h9.07v10.89H450.95z"/>
        <path d="M513.63,244.6c-2.18,3.87-5.32,7.26-8.59,9.32c-4.12,2.66-9.56,3.87-15.01,3.87c-6.78,0-12.34-1.69-17.18-6.53    s-7.5-11.86-7.5-19.48c0-7.87,2.78-15.49,8.11-20.93c4.23-4.24,9.8-6.9,17.06-6.9c8.11,0,13.31,3.51,16.34,6.66    c6.53,6.78,7.14,16.21,7.14,21.54v1.45h-36.54c0.24,3.63,1.81,7.74,4.36,10.29c2.78,2.78,6.17,3.27,9.07,3.27    c3.27,0,5.69-0.73,8.11-2.54c2.06-1.57,3.63-3.63,4.72-5.57L513.63,244.6z M501.89,223.91c-0.48-2.78-1.82-5.2-3.63-6.9    c-1.57-1.45-4.11-2.9-7.99-2.9c-4.11,0-6.78,1.69-8.35,3.27c-1.69,1.57-3.02,3.99-3.63,6.53H501.89z"/>
        <path d="M538.19,168.01v88.21h-11.86v-88.21H538.19z"/>
        <path d="M575.46,218.71c-1.21-1.94-3.51-4.36-7.26-4.36c-1.69,0-2.9,0.61-3.63,1.33c-0.6,0.61-1.09,1.57-1.09,2.66    c0,1.33,0.61,2.18,1.69,2.9c0.73,0.48,1.45,0.73,3.99,2.06l6.05,3.02c2.66,1.33,5.2,2.66,7.14,4.72c2.78,2.78,3.75,5.93,3.75,9.44    c0,4.6-1.69,8.59-4.48,11.62c-3.99,4.36-8.96,5.69-14.28,5.69c-3.27,0-7.38-0.48-11.01-3.27c-2.9-2.18-5.32-5.69-6.54-9.32    l9.68-4.6c0.61,1.69,1.7,3.87,2.78,4.84c0.73,0.73,2.42,1.94,5.2,1.94c1.82,0,3.75-0.61,4.84-1.69c0.97-0.97,1.7-2.54,1.7-3.99    s-0.48-2.66-1.57-3.87c-1.45-1.45-3.14-2.3-5.08-3.15l-4.36-2.06c-2.3-1.09-5.08-2.42-7.02-4.36c-2.66-2.54-3.63-5.32-3.63-8.59    c0-4.11,1.57-8.11,4.24-10.89c2.3-2.42,6.17-4.84,12.46-4.84c3.63,0,6.53,0.73,9.44,2.66c1.69,1.09,3.99,3.03,5.81,6.29    L575.46,218.71z"/>
        <path d="M642.37,244.6c-2.18,3.87-5.32,7.26-8.59,9.32c-4.12,2.66-9.56,3.87-15.01,3.87c-6.78,0-12.34-1.69-17.18-6.53    s-7.5-11.86-7.5-19.48c0-7.87,2.78-15.49,8.11-20.93c4.23-4.24,9.8-6.9,17.06-6.9c8.11,0,13.31,3.51,16.34,6.66    c6.53,6.78,7.14,16.21,7.14,21.54v1.45h-36.54c0.24,3.63,1.81,7.74,4.36,10.29c2.78,2.78,6.17,3.27,9.07,3.27    c3.27,0,5.69-0.73,8.11-2.54c2.06-1.57,3.63-3.63,4.72-5.57L642.37,244.6z M630.63,223.91c-0.48-2.78-1.82-5.2-3.63-6.9    c-1.57-1.45-4.11-2.9-7.99-2.9c-4.11,0-6.78,1.69-8.35,3.27c-1.69,1.57-3.02,3.99-3.63,6.53H630.63z"/>
        <path d="M654.95,205.28h11.86V210c5.08-5.69,10.89-6.05,13.79-6.05c9.44,0,13.43,4.72,15.01,6.9c1.94,2.78,3.14,6.29,3.14,14.16    v31.22H686.9V227.9c0-12.95-4.84-13.31-9.32-13.31c-5.32,0-10.77,0.73-10.77,17.18v24.44h-11.86V205.28z"/>
	</g>
        <g>
		<path d="M114.02,301.39c-22.89,0-45.73-7.41-64.3-20.86c-19.35-14.02-32.68-33.19-38.56-55.44c-5.44-20.58-5.44-48.6-5.44-71.1    v-1.51c0-22.51,0-50.52,5.44-71.1c5.88-22.25,19.21-41.42,38.56-55.44c18.57-13.45,41.4-20.86,64.3-20.86    c22.89,0,45.73,7.41,64.3,20.86c19.35,14.02,32.68,33.19,38.56,55.44c5.44,20.58,5.44,48.6,5.44,71.1v1.51    c0,22.51,0,50.52-5.44,71.1c-5.88,22.25-19.21,41.42-38.56,55.44C159.75,293.98,136.91,301.39,114.02,301.39z M114.02,9.07    c-22.06,0-44.06,7.14-61.95,20.1c-18.59,13.47-31.4,31.87-37.04,53.22c-5.31,20.08-5.31,47.81-5.31,70.08v1.51    c0,22.28,0,50,5.31,70.08c5.64,21.35,18.45,39.75,37.04,53.22c17.89,12.96,39.89,20.1,61.95,20.1c22.06,0,44.06-7.14,61.95-20.1    c18.59-13.47,31.4-31.87,37.04-53.22c5.31-20.08,5.31-47.81,5.31-70.08v-1.51c0-22.28,0-50-5.31-70.08    c-5.64-21.35-18.45-39.75-37.04-53.22C158.08,16.21,136.08,9.07,114.02,9.07z"/>
            <g>
			<path d="M28.56,178.47c0-2.06,0.26-3.36,1.25-4.42c0.82-0.86,1.85-1.27,3.17-1.27c0.62,0,1.27,0.1,1.9,0.48     c0.62,0.36,0.94,0.84,1.1,1.2c0.07-0.29,0.34-1.27,1.15-2.06c0.91-0.86,2.02-1.06,3-1.06c1.15,0,2.06,0.29,2.88,1.06     c1.34,1.27,1.56,3.26,1.56,4.49v4.01H28.56V178.47z M35.45,178.45v-0.74c0-0.6-0.07-1.42-0.62-1.99     c-0.53-0.55-1.27-0.62-1.82-0.62c-0.48,0-1.06,0.07-1.54,0.58c-0.53,0.55-0.6,1.25-0.6,1.94v0.84H35.45z M42.27,178.45v-1.49     c0-0.7-0.12-1.8-0.62-2.42c-0.38-0.48-1.06-0.79-1.78-0.79c-0.65,0-1.27,0.24-1.68,0.65c-0.65,0.67-0.72,1.66-0.72,2.52v1.54     H42.27z"/>
                <path d="M30.86,150.79v6.38h4.06v-6.19h2.3v6.19h5.04v-6.38h2.3v8.83H28.56v-8.83H30.86z"/>
                <path d="M28.64,135.95c0.03-1.94,0.29-3.19,1-4.21c1.2-1.73,3.1-1.85,3.8-1.84c2.3,0.04,3.96,1.48,4.41,3.62l6.92-4.88     l-0.05,2.95l-6.63,4.48l-0.01,0.43l6.55,0.1l-0.04,2.45l-16.01-0.25L28.64,135.95z M35.97,136.48l0.01-0.77     c0.01-0.67-0.02-3.41-2.56-3.45c-2.26-0.04-2.51,2.1-2.53,3.3l-0.01,0.84L35.97,136.48z"/>
                <path d="M37.52,108.91l0.55-6.58l0.12,0.01c2.73,0.23,4.88,1.23,6.26,2.91c1.46,1.79,1.73,3.78,1.58,5.6     c-0.2,2.32-1,3.91-2.63,5.24c-1.73,1.42-3.93,2.05-6.22,1.86c-2.49-0.21-4.55-1.39-5.76-2.82c-1.27-1.48-2.09-3.74-1.89-6.2     c0.12-1.43,0.56-2.89,1.35-4.08c0.85-1.25,1.85-1.99,2.61-2.38l1.2,2.05c-0.71,0.42-1.49,1.08-1.98,1.81     c-0.6,0.84-0.85,1.78-0.93,2.76c-0.17,2.08,0.57,3.49,1.3,4.35c0.96,1.14,2.61,1.93,4.33,2.07c1.6,0.13,3.25-0.33,4.47-1.29     c1.26-1,1.81-2.33,1.94-3.86c0.12-1.39-0.19-2.57-1.11-3.68c-0.79-0.96-1.69-1.39-2.59-1.57l-0.33,3.97L37.52,108.91z"/>
                <path d="M37.93,79.81l-1.94,6.08l3.86,1.24l1.89-5.9l2.19,0.7l-1.89,5.9l4.8,1.54l1.94-6.08l2.19,0.7l-2.69,8.41l-15.25-4.88     l2.69-8.41L37.93,79.81z"/>
                <path d="M50.04,61.7c-0.37-0.1-0.77-0.13-1.24-0.02c-0.63,0.16-1.08,0.48-1.49,1.04c-0.89,1.19-0.63,2.34,0.2,2.96     c0.38,0.29,1.16,0.65,2.59-0.23l1.48-0.9c2.72-1.65,4.56-1.31,6.02-0.22c2.45,1.82,2.83,4.8,1.04,7.2     c-1.1,1.48-2.32,1.95-3.54,2.06c-1.29,0.12-2.36-0.2-3.3-0.78l1.02-2.26c0.64,0.47,1.4,0.69,2.04,0.68     c0.73-0.02,1.44-0.33,2.02-1.1c0.89-1.19,0.71-2.76-0.58-3.72c-1.31-0.97-2.59-0.37-3.57,0.22l-1.44,0.85     c-1.23,0.73-3.28,1.63-5.2,0.2c-1.73-1.29-2.39-3.87-0.6-6.27c1.03-1.39,2.14-1.79,2.78-1.94c0.57-0.12,1.28-0.15,2.02-0.02     L50.04,61.7z"/>
                <path d="M68.12,43.62l-5.15,3.77l2.4,3.27l5-3.66l1.36,1.86l-5,3.66l2.98,4.07l5.15-3.77l1.36,1.86l-7.13,5.22l-9.46-12.92     l7.13-5.22L68.12,43.62z"/>
                <path d="M85.49,49.55L80.21,33.3l14.81,7.98l-3.43-10.55l2.33-0.76l5.25,16.16l-14.81-7.98l3.46,10.64L85.49,49.55z"/>
                <path d="M117.09,31.49c-0.14-0.36-0.35-0.7-0.71-1.02c-0.5-0.41-1.03-0.59-1.72-0.6c-1.49-0.02-2.27,0.86-2.28,1.89     c-0.01,0.48,0.15,1.32,1.7,1.97l1.6,0.67c2.94,1.24,3.73,2.93,3.71,4.75c-0.04,3.05-2.23,5.11-5.23,5.07     c-1.85-0.02-2.94-0.73-3.75-1.66c-0.85-0.97-1.22-2.03-1.3-3.14l2.43-0.5c-0.01,0.79,0.27,1.54,0.65,2.05     c0.45,0.58,1.12,0.97,2.08,0.99c1.49,0.02,2.65-1.05,2.67-2.65c0.02-1.63-1.22-2.32-2.27-2.77l-1.53-0.67     c-1.31-0.57-3.24-1.7-3.21-4.1c0.03-2.16,1.73-4.2,4.73-4.17c1.73,0.02,2.7,0.68,3.2,1.12c0.43,0.39,0.88,0.95,1.2,1.62     L117.09,31.49z"/>
                <path d="M137.32,33.49l-3.59,13.23l-2.36-0.64l3.59-13.23l-3.54-0.96l0.6-2.22l9.45,2.56l-0.6,2.22L137.32,33.49z"/>
                <path d="M156.01,38.74l-7.55,14.12l-2.16-1.15l7.55-14.12L156.01,38.74z"/>
                <path d="M173.19,54.34l-4.16-3.7l-2.7,3.03l4.01,3.58l-1.53,1.72l-4.01-3.58l-4.88,5.48l-1.83-1.63l10.65-11.95l5.98,5.33     L173.19,54.34z"/>
                <path d="M184.58,69l-11.6,7.28l-1.3-2.07l11.61-7.28l-1.95-3.11l1.95-1.22l5.2,8.29l-1.95,1.22L184.58,69z"/>
                <path d="M194,93.55l-1.53-6.2l-3.94,0.97l1.49,6.01l-2.24,0.55l-1.49-6.01l-4.89,1.21l1.54,6.2l-2.24,0.55l-2.12-8.57l15.54-3.85     l2.12,8.58L194,93.55z"/>
                <path d="M198.23,108.99l-13.65,1.16l0.4,4.69l-2.29,0.19l-0.61-7.12l15.95-1.35L198.23,108.99z"/>
                <path d="M195.78,131.86c0.36-0.15,0.69-0.38,0.99-0.75c0.39-0.51,0.55-1.05,0.53-1.74c-0.04-1.49-0.94-2.23-1.97-2.21     c-0.48,0.01-1.32,0.2-1.9,1.78l-0.61,1.62c-1.13,2.98-2.79,3.84-4.61,3.88c-3.05,0.08-5.19-2.03-5.26-5.03     c-0.05-1.85,0.62-2.97,1.51-3.81c0.94-0.89,1.98-1.3,3.08-1.42l0.59,2.41c-0.79,0.02-1.53,0.33-2.02,0.72     c-0.56,0.47-0.93,1.15-0.91,2.11c0.04,1.49,1.14,2.61,2.75,2.57c1.63-0.04,2.27-1.3,2.68-2.37l0.61-1.55     c0.52-1.33,1.57-3.3,3.97-3.36c2.16-0.05,4.26,1.57,4.34,4.57c0.04,1.73-0.58,2.73-1,3.24c-0.37,0.44-0.91,0.91-1.58,1.26     L195.78,131.86z"/>
                <path d="M197.18,155.01l-0.01-6.38l-4.06,0.01l0.01,6.19l-2.3,0l-0.01-6.19l-5.04,0.01l0.01,6.38l-2.3,0l-0.01-8.83l16.01-0.02     l0.01,8.83L197.18,155.01z"/>
                <path d="M183.47,166.82h17.09l-12.17,11.62h11.09v2.45h-16.99l12.17-11.62h-11.18V166.82z"/>
		</g>
            <g>
			<path d="M55.89,254c-0.64,0.17-1.33,0.18-1.88,0.04c-0.71-0.17-1.4-0.62-1.97-1.2c-0.7-0.72-1.09-1.5-1.08-2.51     c0.02-1.02,0.49-2.03,1.31-2.82c0.84-0.81,1.94-1.3,3.08-1.3c0.89,0.01,1.75,0.33,2.5,1.11c0.84,0.87,1,1.79,0.98,2.43     c-0.05,1.4-1,2.44-1.56,2.99l-0.16,0.15l-3.78-3.91c-0.36,0.4-0.64,1-0.65,1.53c-0.01,0.59,0.29,1,0.59,1.31     c0.34,0.35,0.67,0.53,1.11,0.6c0.38,0.06,0.76,0.01,1.08-0.07L55.89,254z M56.89,250.61c0.25-0.34,0.37-0.73,0.36-1.1     c-0.01-0.32-0.12-0.74-0.52-1.15c-0.43-0.44-0.88-0.55-1.21-0.56c-0.34-0.02-0.74,0.09-1.07,0.29L56.89,250.61z"/>
                <path d="M67.07,257.65l-3.51,4.81l-1.42-1.04l3.51-4.81l-0.59-0.44l0.96-1.31l0.6,0.44l1.64-2.24l1.42,1.04l-1.64,2.24l1.09,0.8     l-0.96,1.31L67.07,257.65z"/>
                <path d="M80.58,263.69l1.58,0.78l-3.37,6.79l-1.58-0.78l0.35-0.71c-1.09,0.46-2,0.15-2.49-0.09c-2.1-1.04-2.43-3.37-1.5-5.24     c1.1-2.21,3.28-2.81,5.07-1.93c0.5,0.25,1.31,0.81,1.54,1.97L80.58,263.69z M75.18,265.27c-0.58,1.18-0.33,2.53,0.82,3.1     c1,0.5,2.28,0.23,2.98-1.19c0.74-1.48,0.17-2.65-0.83-3.14C77,263.47,75.78,264.07,75.18,265.27z"/>
                <path d="M91.83,268.86c0.94-0.72,1.91-0.61,2.45-0.47c1.93,0.51,3.18,2.41,2.55,4.79c-0.54,2.02-2.32,3.56-4.58,2.96     c-0.52-0.14-1.41-0.5-1.93-1.57l-0.2,0.77l-1.71-0.45l3.36-12.68l1.71,0.45L91.83,268.86z M90.97,271.69     c-0.41,1.53,0.38,2.58,1.46,2.86c1.23,0.33,2.32-0.52,2.65-1.79c0.35-1.3-0.18-2.56-1.41-2.89     C92.59,269.59,91.39,270.09,90.97,271.69z"/>
                <path d="M106.55,276.42c0.59,0.05,1.03,0.58,0.98,1.17c-0.05,0.59-0.58,1.03-1.17,0.98c-0.59-0.05-1.03-0.58-0.98-1.17     S105.96,276.37,106.55,276.42z"/>
                <path d="M130.12,266.65l-2.04,0.46l0.61-1.87l2.85-0.64l2.65,11.71l-1.79,0.4L130.12,266.65z"/>
                <path d="M145.29,272.25l1.19-4.43c-0.19,0.14-0.37,0.24-0.57,0.32c-1.31,0.55-2.38,0.33-3.02,0.07c-0.8-0.32-1.59-0.95-2.08-2.09     c-0.47-1.11-0.45-2.27-0.08-3.23c0.39-1.01,1.15-1.81,2.37-2.33c1.51-0.64,2.65-0.4,3.31-0.11c0.67,0.28,1.5,0.87,2.02,2.09     c0.34,0.8,0.42,1.5,0.36,2.33c-0.06,1-0.28,1.68-0.51,2.54l-1.4,5.24L145.29,272.25z M146.87,265.25     c0.23-0.61,0.2-1.33-0.05-1.91c-0.25-0.6-0.73-1.08-1.31-1.3c-0.58-0.22-1.28-0.2-1.84,0.04c-0.61,0.26-1.09,0.79-1.31,1.3     c-0.21,0.52-0.25,1.22,0.04,1.9c0.26,0.61,0.75,1.13,1.34,1.37c0.51,0.19,1.2,0.21,1.82-0.05     C146.13,266.34,146.63,265.88,146.87,265.25z"/>
                <path d="M158.81,253.85l-4.86,3.35l-0.96-1.39l7.35-5.07l0.83,14.52l-1.7,0.08L158.81,253.85z"/>
                <path d="M170.82,243.02l-2.58,2.66l1.02,1.82c0.11-0.14,0.24-0.3,0.36-0.43c0.7-0.72,1.66-1.22,2.69-1.25     c0.8-0.02,1.9,0.21,3.02,1.3c0.94,0.91,1.42,1.95,1.44,3.1c0.01,1.34-0.59,2.36-1.44,3.24c-0.49,0.5-1.13,1.04-1.99,1.28     c-0.2,0.05-0.98,0.26-1.98,0.06l0.14-1.8c0.09,0.04,0.74,0.22,1.39,0.07c0.47-0.1,0.96-0.4,1.39-0.84     c0.68-0.7,0.79-1.36,0.8-1.78c-0.01-0.51-0.19-1.26-0.92-1.97c-0.71-0.69-1.38-0.86-1.9-0.84c-0.81,0.04-1.44,0.53-1.84,0.95     c-0.36,0.38-0.59,0.71-0.8,1.18c-0.16,0.37-0.28,0.73-0.35,1.14l-3.12-5.5l3.46-3.57L170.82,243.02z"/>
		</g>
            <path d="M114.02,293.76c-21.3,0-42.54-6.89-59.82-19.41c-17.91-12.97-30.24-30.68-35.66-51.21c-5.19-19.63-5.19-47.09-5.18-69.16    v-1.51c0-22.07,0-49.53,5.18-69.15c5.43-20.53,17.76-38.24,35.66-51.21C71.48,19.59,92.72,12.7,114.02,12.7    c21.3,0,42.54,6.89,59.82,19.41c17.91,12.97,30.24,30.68,35.66,51.21c5.19,19.63,5.19,47.09,5.18,69.15v1.51    c0,22.07,0,49.53-5.18,69.15c-5.43,20.53-17.76,38.24-35.66,51.21C156.56,286.87,135.32,293.76,114.02,293.76z M114.02,14.2    c-20.98,0-41.92,6.79-58.94,19.12C37.45,46.09,25.32,63.51,19.98,83.7c-5.14,19.44-5.14,46.79-5.14,68.77v1.51    c0,21.98,0,49.33,5.14,68.77c5.34,20.19,17.47,37.61,35.09,50.38c17.03,12.33,37.96,19.12,58.94,19.12    c20.99,0,41.92-6.79,58.94-19.12c17.62-12.77,29.76-30.19,35.09-50.38c5.14-19.44,5.14-46.79,5.14-68.77v-1.51    c0-21.98,0-49.33-5.14-68.77c-5.34-20.19-17.47-37.61-35.09-50.38C155.94,20.99,135,14.2,114.02,14.2z"/>
            <path d="M114.02,249.12c-24.59,0-46.6-15.72-52.32-37.38c-3.7-14.02-3.7-39.28-3.7-57.73v-1.53c0-18.46,0-43.73,3.7-57.74    c5.72-21.66,27.73-37.38,52.32-37.38s46.6,15.72,52.32,37.38c3.7,14.02,3.7,39.28,3.7,57.73v1.53c0,18.46,0,43.73-3.7,57.75    C160.62,233.4,138.61,249.12,114.02,249.12z M114.02,58.84c-23.92,0-45.32,15.25-50.87,36.27c-3.65,13.83-3.65,38.98-3.65,57.35    v1.53c0,18.38,0,43.54,3.66,57.37c5.55,21.01,26.95,36.26,50.87,36.26s45.32-15.25,50.87-36.27c3.65-13.83,3.65-38.98,3.65-57.35    v-1.53c0-18.38,0-43.54-3.66-57.36C159.34,74.09,137.94,58.84,114.02,58.84z"/>
            <path d="M187.65,219.2c-2.17,0-3.94-1.77-3.94-3.94s1.77-3.94,3.94-3.94s3.94,1.77,3.94,3.94S189.82,219.2,187.65,219.2z     M187.65,212.82c-1.34,0-2.44,1.09-2.44,2.44s1.09,2.44,2.44,2.44s2.44-1.09,2.44-2.44S188.99,212.82,187.65,212.82z"/>
            <path d="M39.97,219.2c-2.17,0-3.94-1.77-3.94-3.94s1.77-3.94,3.94-3.94s3.94,1.77,3.94,3.94S42.14,219.2,39.97,219.2z     M39.97,212.82c-1.34,0-2.44,1.09-2.44,2.44s1.09,2.44,2.44,2.44s2.44-1.09,2.44-2.44S41.32,212.82,39.97,212.82z"/>
            <path d="M141.63,152.43c3.66-3.98,5.9-9.28,5.9-15.09c0-12.3-10.01-22.31-22.31-22.31h-8.97v-5.58c3.74-1.92,6.3-5.81,6.3-10.3    c0-6.39-5.2-11.59-11.59-11.59s-11.59,5.2-11.59,11.59c0,4.49,2.57,8.38,6.3,10.3v5.58h-6.15v10.56h6.15v66.5h-6.41    c-6.51,0-12.32-3.84-14.9-9.8l3.61-1.8l-17.17-13.15L71,188.97l3.93-1.96c4.36,9.53,13.8,15.65,24.35,15.65h11.69h8.65h9.06    c14.77,0,26.79-12.02,26.79-26.79C155.47,165.79,149.87,157,141.63,152.43z M110.96,94.45c2.59,0,4.7,2.11,4.7,4.7    s-2.11,4.7-4.7,4.7s-4.7-2.11-4.7-4.7S108.37,94.45,110.96,94.45z M125.21,125.59c6.48,0,11.75,5.27,11.75,11.75    s-5.27,11.75-11.75,11.75h-8.97v-23.49H125.21z M128.68,192.09h-9.06h-3.37v-32.45h8.97h3.47c8.95,0,16.22,7.28,16.22,16.22    C144.9,184.82,137.63,192.09,128.68,192.09z"/>
	</g>
</g>
</svg>
