<?xml version="1.0" encoding="utf-8"?>
<svg viewBox="0 0 1473.24 435.07" xmlns="http://www.w3.org/2000/svg">
  <path opacity="1.000000" stroke="none" d="M 186.301 215.179 C 186.303 149.882 186.291 85.586 186.315 21.29 C 186.32 8.201 186.369 7.881 199.553 7.4 C 212.187 6.939 224.851 7.103 237.498 7.273 C 241.748 7.33 245.987 8.247 250.966 8.861 C 251.255 12.283 251.71 15.161 251.711 18.038 C 251.763 150.628 251.785 283.218 251.773 415.808 C 251.772 425.162 251.227 426.206 241.615 426.54 C 226.66 427.058 211.664 427.021 196.704 426.581 C 186.831 426.291 186.301 425.254 186.296 415.064 C 186.276 367.758 186.294 320.452 186.298 273.146 C 186.3 254.157 186.299 235.168 186.301 215.179 Z" style=""/>
  <path opacity="1.000000" stroke="none" d="M 60.95 125.964 C 55.636 116.313 50.666 107.311 45.587 98.109 C 58.125 78.796 73.572 63.088 92.137 49.133 C 94.116 51.787 95.89 53.694 97.132 55.901 C 117.391 91.888 138.042 127.665 157.657 164 C 176.398 198.714 176.886 234.408 158.169 269.254 C 138.317 306.212 117.27 342.527 96.713 379.105 C 95.754 380.81 94.483 382.339 93.084 384.342 C 91.723 383.849 90.36 383.689 89.429 382.969 C 74.063 371.078 60.654 357.304 48.989 341.727 C 45.396 336.929 46.864 333.223 49.253 328.983 C 62.981 304.612 76.677 280.223 90.361 255.827 C 93.945 249.437 97.614 243.087 100.951 236.569 C 107.27 224.225 108.099 211.513 101.422 199.16 C 88.917 176.021 75.975 153.119 63.216 130.117 C 62.57 128.952 61.935 127.78 60.95 125.964 Z" style=""/>
  <path opacity="1.000000" stroke="none" d="M 319.568 339.294 C 306.955 316.888 294.599 295.179 282.507 273.322 C 262.016 236.282 261.536 198.904 281.947 161.766 C 300.877 127.324 320.407 93.212 339.696 58.968 C 341.451 55.852 343.376 52.832 345.801 48.807 C 364.874 62.604 379.89 78.655 392.938 97.843 C 390.495 102.418 388.105 107.091 385.539 111.666 C 371.369 136.936 357.111 162.158 342.982 187.451 C 338.443 195.578 333.693 203.62 332.938 213.306 C 332.126 223.723 335.218 232.991 340.23 241.887 C 356.416 270.616 372.334 299.498 388.836 328.043 C 392.195 333.853 392.41 337.917 388.307 343.254 C 377.072 357.865 364.45 371.039 350.037 382.504 C 349.033 383.303 347.736 383.735 345.398 384.95 C 336.855 369.84 328.399 354.882 319.568 339.294 Z" style=""/>
  <path opacity="1.000000" stroke="none" d="M 16.088 240.518 C -0.762 218.167 11.265 180.19 45.528 177.679 C 63.455 176.365 79.458 187.441 85.492 204.804 C 90.964 220.547 84.681 239.901 71.061 249.256 C 55.938 259.644 36.578 259.025 22.708 247.573 C 20.42 245.683 18.548 243.289 16.088 240.518 Z" style=""/>
  <path opacity="1.000000" stroke="none" d="M 396.387 178.084 C 414.196 179.97 428.635 197.478 429.869 212.609 C 431.267 229.755 423.319 244.785 407.576 252.648 C 391.776 260.541 371.975 256.34 360.386 242.638 C 348.944 229.109 347.946 208.51 358.206 194.396 C 367.434 181.702 380.11 176.588 396.387 178.084 Z" style=""/>
  <path opacity="1.000000" stroke="none" d="M 589.744 117.436 C 583.215 124.125 577.188 130.315 570.158 137.537 C 587.198 155.894 604.5 174.534 621.904 193.283 C 609.086 197.786 601.307 195.985 593.021 186.894 C 580.302 172.942 567.556 159.016 553.419 143.544 C 551.749 153.365 552.674 161.482 552.505 169.495 C 552.329 177.754 552.466 186.02 552.466 194.725 C 546.305 194.725 541.09 194.725 535.127 194.725 C 535.127 158.537 535.127 122.434 535.127 85.678 C 540.271 85.678 545.756 85.678 552.503 85.678 C 552.503 99.994 552.503 114.335 552.503 128.676 C 553.161 128.939 553.819 129.202 554.477 129.465 C 558.618 125.381 562.796 121.333 566.893 117.203 C 575.564 108.464 584.401 99.875 592.746 90.832 C 596.678 86.572 600.784 84.413 606.617 84.935 C 611.197 85.345 615.843 85.017 621.735 85.017 C 610.566 96.34 600.406 106.639 589.744 117.436 Z" style=""/>
  <path opacity="1.000000" stroke="none" d="M 595.265 276.333 C 596.367 278.12 596.948 279.306 597.529 280.492 C 598.24 280.157 598.95 279.823 599.661 279.489 C 600.201 275.83 600.74 272.172 601.344 268.08 C 606.467 268.08 611.335 268.08 617.687 268.08 C 617.74 296.8 617.796 325.487 617.628 354.544 C 611.836 354.544 606.899 354.544 601.402 354.544 C 600.919 350.999 600.44 347.48 599.831 343.003 C 598.18 344.3 596.968 345.081 595.959 346.069 C 577.738 363.918 547.382 359.572 535.775 336.931 C 527.384 320.564 527.334 303.377 535.329 286.875 C 546.159 264.521 574.233 259.531 595.265 276.333 M 567.779 281.478 C 561.001 283.126 555.347 286.617 551.997 292.774 C 545.302 305.078 545.117 317.848 551.96 329.984 C 560.273 344.726 583.478 346.563 593.894 333.255 C 602.908 321.74 603.392 308.546 597.499 295.512 C 592.12 283.614 581.868 279.931 567.779 281.478 Z" style=""/>
  <path opacity="1.000000" stroke="none" d="M 835.005 344.672 C 834.89 348.226 834.776 350.84 834.629 354.181 C 829.171 354.181 824.063 354.181 818.191 354.181 C 817.855 350.867 817.501 347.376 817.046 342.882 C 815.462 344.111 814.119 344.823 813.216 345.903 C 798.707 363.255 762.595 361.496 751.19 333.704 C 745.261 319.255 745.065 304.397 750.91 289.942 C 761.327 264.177 793.727 257.925 813.409 277.593 C 814.108 278.292 814.627 279.17 816.458 281.584 C 817.17 276.154 817.647 272.511 818.21 268.222 C 823.276 268.222 828.438 268.222 835.005 268.222 C 835.005 293.423 835.005 318.577 835.005 344.672 M 775.146 336.995 C 791.431 346.175 808.386 342.086 814.885 326.996 C 819.284 316.782 819.346 306.086 814.793 295.929 C 810.096 285.448 801.391 280.664 789.91 281.066 C 778.785 281.454 770.646 286.69 766.973 297.16 C 762.047 311.207 762.759 324.667 775.146 336.995 Z" style=""/>
  <path opacity="1.000000" stroke="none" d="M 1088.044 107.596 C 1093.795 107.218 1098.8 106.614 1103.744 106.934 C 1117.947 107.855 1127.362 115.533 1131.147 129.095 C 1132.214 132.918 1133.135 136.927 1133.184 140.862 C 1133.401 158.462 1133.278 176.065 1133.278 194.412 C 1127.885 194.412 1122.756 194.412 1116.136 194.412 C 1116.136 191.438 1116.164 188.256 1116.131 185.075 C 1115.984 170.769 1116.316 156.436 1115.521 142.165 C 1114.742 128.196 1106.322 121.104 1092.587 121.396 C 1081.154 121.638 1073.848 127.374 1071.459 138.743 C 1070.375 143.904 1070.023 149.286 1069.941 154.577 C 1069.735 167.848 1069.873 181.124 1069.873 194.772 C 1064.173 194.772 1059.252 194.772 1053.573 194.772 C 1053.573 156.658 1053.573 118.637 1053.573 80.137 C 1058.647 80.137 1063.523 80.137 1069.481 80.137 C 1069.481 92.636 1069.481 105.087 1069.481 118.108 C 1076.116 114.26 1081.693 111.026 1088.044 107.596 Z" style=""/>
  <path opacity="1.000000" stroke="none" d="M 1181.321 195.467 C 1144.462 186.866 1142.156 143.233 1156.816 123.336 C 1167.038 109.463 1185.758 102.909 1204.28 107.692 C 1221.16 112.051 1230.839 123.431 1233.863 140.462 C 1234.667 144.989 1234.87 149.624 1235.461 155.29 C 1223.222 156.824 1211.689 155.835 1200.228 156.014 C 1188.987 156.19 1177.74 156.053 1166.486 156.053 C 1166.993 169.254 1171.917 176.665 1181.862 180.307 C 1194.824 185.055 1208.08 181.481 1218.321 170.047 C 1222.717 170.652 1227.53 171.314 1233.191 172.092 C 1228.351 184.861 1219.559 191.702 1207.835 194.96 C 1199.414 197.3 1190.77 197.896 1181.321 195.467 M 1175.519 142.626 C 1182.507 142.625 1189.506 142.86 1196.481 142.556 C 1203.567 142.248 1210.844 143.915 1217.81 141.486 C 1215.514 127.039 1206.504 119.689 1192.147 119.953 C 1177.665 120.219 1168.867 127.793 1167.169 141.986 C 1169.389 142.2 1171.598 142.412 1175.519 142.626 Z" style=""/>
  <path opacity="1.000000" stroke="none" d="M 1449.69 185.361 C 1434.477 198.181 1417.965 199.354 1400.368 193.788 C 1399.104 193.389 1397.851 192.915 1396.654 192.347 C 1379.208 184.071 1370.189 164.405 1373.77 142.501 C 1377.017 122.643 1391.619 108.722 1411.256 106.763 C 1442.071 103.687 1463.215 125.295 1458.457 156.053 C 1447.342 156.053 1436.068 156.053 1424.794 156.053 C 1413.872 156.053 1402.95 156.053 1392.135 156.053 C 1390.943 167.537 1395.521 175.475 1405.178 179.679 C 1418.117 185.311 1432.364 181.841 1443.348 170.015 C 1447.748 170.675 1452.494 171.385 1459.012 172.362 C 1455.407 177.473 1452.805 181.162 1449.69 185.361 M 1399.287 142.625 C 1413.706 142.625 1428.125 142.625 1442.7 142.625 C 1440.352 126.429 1430.172 118.688 1414.733 120.158 C 1400.244 121.537 1391.716 129.996 1392.597 142.348 C 1394.211 142.439 1395.851 142.53 1399.287 142.625 Z" style=""/>
  <path opacity="1.000000" stroke="none" d="M 1064.128 269.615 C 1070.372 268.288 1075.875 266.521 1081.433 266.328 C 1109.167 265.366 1128.389 287.406 1123.964 315.856 C 1101.637 315.856 1079.128 315.856 1056.638 315.856 C 1056.748 328.694 1061.571 336.181 1071.56 340.019 C 1084.524 344.998 1097.612 341.514 1108.665 329.869 C 1110.647 330.172 1112.912 330.536 1115.183 330.86 C 1117.459 331.184 1119.74 331.466 1122.976 331.893 C 1119.789 342.339 1112.928 348.572 1104.081 352.646 C 1081.41 363.088 1053.598 354.447 1043.372 334.078 C 1031.332 310.098 1039.955 282.484 1064.128 269.615 M 1082.479 279.844 C 1079.218 280.349 1075.854 280.503 1072.714 281.424 C 1063.087 284.246 1057.944 291.254 1057.434 301.937 C 1074.11 301.937 1090.767 301.937 1107.943 301.937 C 1107.819 300.012 1107.944 298.707 1107.627 297.519 C 1104.421 285.489 1095.651 280.809 1082.479 279.844 Z" style=""/>
  <path opacity="1.000000" stroke="none" d="M 997.178 182.038 C 1009.526 180.224 1010.855 179.502 1019.463 170.17 C 1021.458 170.408 1023.734 170.67 1026.008 170.954 C 1028.282 171.239 1030.554 171.546 1033.662 171.953 C 1032.933 174.258 1032.685 176.132 1031.807 177.64 C 1025.508 188.466 1015.819 194.251 1003.614 196.022 C 985.269 198.684 968.536 195.335 957.606 179.212 C 946.175 162.35 946.205 143.973 956.071 126.284 C 965.034 110.213 984.993 102.99 1004.845 107.511 C 1022.088 111.437 1034.257 126.145 1035.599 144.838 C 1035.835 148.122 1035.633 151.438 1035.633 155.894 C 1012.879 155.894 990.456 155.894 968.13 155.894 C 967.335 169.216 973.803 178.348 985.408 181.018 C 988.936 181.83 992.666 181.764 997.178 182.038 M 992.788 119.969 C 989.838 120.445 986.808 120.634 983.955 121.447 C 974.506 124.14 969.24 131.082 968.272 141.698 C 980.738 143.529 1012.375 143.022 1019.015 140.884 C 1016.147 126.655 1010.967 122.257 992.788 119.969 Z" style=""/>
  <path opacity="1.000000" stroke="none" d="M 927.499 355.032 C 924.356 354.876 922.076 354.72 918.994 354.51 C 918.994 340.62 919.127 327.015 918.928 313.415 C 918.85 308.124 918.523 302.74 917.438 297.582 C 915.255 287.204 908.539 282.004 897.597 281.368 C 886.121 280.701 878.223 285.208 875.155 295.427 C 873.466 301.052 873.024 307.171 872.815 313.094 C 872.454 323.393 872.709 333.713 872.706 344.024 C 872.705 347.291 872.706 350.558 872.706 354.425 C 866.68 354.425 861.536 354.425 855.87 354.425 C 855.87 325.854 855.87 297.384 855.87 268.255 C 861.071 268.255 866.186 268.255 871.84 268.255 C 872.348 271.348 872.863 274.484 873.653 279.296 C 883.143 267.405 895.036 265.25 908.18 266.889 C 921.083 268.498 929.469 275.463 933.45 287.759 C 934.266 290.279 935.229 292.914 935.249 295.503 C 935.4 315.077 935.331 334.652 935.331 354.569 C 932.927 354.729 930.645 354.88 927.499 355.032 Z" style=""/>
  <path opacity="1.000000" stroke="none" d="M 755.143 169.134 C 755.143 148.54 755.143 128.939 755.143 108.6 C 760.78 108.6 765.852 108.6 771.301 108.6 C 771.842 111.722 772.386 114.864 773.239 119.789 C 782.404 107.557 794.153 105.647 806.954 106.932 C 820.303 108.273 829.102 115.37 833.098 128.102 C 834.379 132.186 835.322 136.557 835.383 140.811 C 835.634 158.435 835.488 176.064 835.488 194.42 C 830.189 194.42 825.056 194.42 818.539 194.42 C 818.539 191.078 818.586 187.552 818.531 184.028 C 818.305 169.728 818.707 155.377 817.612 141.143 C 816.578 127.7 808.108 121.102 794.752 121.399 C 783.373 121.653 775.772 127.558 773.699 138.819 C 772.504 145.313 772.306 152.04 772.179 158.672 C 771.951 170.599 772.115 182.534 772.115 194.8 C 766.298 194.8 761.375 194.8 755.143 194.8 C 755.143 186.473 755.143 178.3 755.143 169.134 Z" style=""/>
  <path opacity="1.000000" stroke="none" d="M 1319.285 142.179 C 1328.266 143.939 1336.551 144.986 1344.541 147.131 C 1354.214 149.728 1361.067 155.518 1361.947 166.421 C 1362.874 177.893 1358.453 186.811 1347.864 191.562 C 1329.665 199.728 1311.645 198.785 1294.553 188.157 C 1289.457 184.988 1285.449 180.583 1283.462 173.884 C 1288.589 172.453 1293.305 171.137 1298.353 169.728 C 1306.519 181.208 1318.167 182.483 1330.556 181.172 C 1333.458 180.865 1336.882 180.29 1338.938 178.525 C 1341.469 176.352 1343.835 172.989 1344.417 169.802 C 1345.125 165.92 1342.035 162.767 1338.279 161.752 C 1331.567 159.939 1324.644 158.919 1317.888 157.25 C 1311.475 155.666 1304.74 154.542 1298.89 151.689 C 1285.045 144.939 1282.576 127.096 1293.522 116.42 C 1309.84 100.503 1349.724 104.044 1359.515 126.576 C 1354.788 127.895 1350.2 129.176 1345.277 130.55 C 1338.22 122.757 1329.36 119.996 1319.196 121.021 C 1317.873 121.154 1316.528 121.191 1315.232 121.459 C 1308.636 122.824 1304.301 126.585 1303.958 131.152 C 1303.61 135.782 1306.922 138.935 1314.55 141.152 C 1315.823 141.522 1317.155 141.691 1319.285 142.179 Z" style=""/>
  <path opacity="1.000000" stroke="none" d="M 1008.221 306.372 C 1025.346 312.798 1031.599 325.107 1025.415 339.112 C 1022.73 345.194 1018.173 349.583 1012.113 352.017 C 995.111 358.846 978.295 358.455 962.083 349.517 C 956.16 346.252 951.553 341.528 948.682 334.405 C 951.347 333.354 953.637 332.301 956.023 331.553 C 958.222 330.864 960.524 330.502 963.553 329.822 C 971.309 340.426 982.739 342.482 995.218 341.154 C 998.138 340.844 1001.108 339.98 1003.801 338.796 C 1007.769 337.05 1009.96 333.858 1009.713 329.289 C 1009.481 324.978 1006.744 322.456 1003.075 321.468 C 996.67 319.743 990.059 318.798 983.607 317.228 C 977.173 315.662 970.414 314.597 964.528 311.784 C 949.807 304.749 947.706 285.911 959.945 275.241 C 976.216 261.056 1009.412 264.368 1022.345 281.522 C 1023.283 282.766 1023.734 284.376 1024.682 286.388 C 1021.363 287.397 1018.552 288.274 1015.728 289.105 C 1012.407 290.081 1009.67 290.04 1006.725 287.232 C 998.627 279.511 988.596 279.997 978.511 281.845 C 976.92 282.137 975.335 282.949 973.958 283.845 C 967.576 287.997 967.599 295.719 974.468 298.867 C 979.21 301.041 984.627 301.834 989.808 302.931 C 995.66 304.17 1001.586 305.059 1008.221 306.372 Z" style=""/>
  <path opacity="1.000000" stroke="none" d="M 871.185 149.781 C 871.147 165.255 871.147 179.798 871.147 194.743 C 865.034 194.743 860.125 194.743 855.204 194.743 C 853.141 187.603 852.413 133.778 854.116 108.682 C 859.437 108.682 864.816 108.682 870.562 108.682 C 870.908 112.117 871.227 115.291 871.734 120.326 C 881.163 106.991 893.679 105.484 907.041 107.099 C 919.022 108.546 927.239 115.118 931.32 126.519 C 932.431 129.622 933.51 132.953 933.544 136.19 C 933.751 155.426 933.646 174.665 933.646 194.536 C 928.611 194.536 923.472 194.536 917.262 194.536 C 917.262 180.669 917.401 166.799 917.19 152.935 C 917.11 147.653 916.781 142.253 915.588 137.134 C 913.197 126.868 906.36 121.886 895.325 121.428 C 884.401 120.974 876.746 125.515 873.544 135.177 C 872.107 139.515 871.957 144.279 871.185 149.781 Z" style=""/>
  <path opacity="1.000000" stroke="none" d="M 1215.306 355.028 C 1211.811 355.029 1209.177 355.029 1205.224 355.029 C 1205.224 348.348 1205.225 342.168 1205.224 335.989 C 1205.223 327.338 1205.271 318.687 1205.191 310.037 C 1205.163 307.054 1205.073 304.03 1204.569 301.1 C 1202.215 287.401 1194.726 281.049 1181.501 281.315 C 1168.795 281.57 1160.737 288.82 1159.714 302.553 C 1158.801 314.803 1159.197 327.152 1159.054 339.458 C 1158.997 344.357 1159.045 349.256 1159.045 354.575 C 1152.968 354.575 1148.067 354.575 1143.152 354.575 C 1141.127 347.324 1140.406 293.663 1142.071 268.446 C 1147.093 268.446 1152.202 268.446 1158.143 268.446 C 1158.57 271.114 1159.074 274.261 1159.626 277.709 C 1160.5 277.47 1161.69 277.518 1162.153 276.962 C 1169.176 268.507 1178.539 266.102 1188.97 266.429 C 1208.181 267.031 1219.521 276.882 1221.467 295.99 C 1222.609 307.201 1222.215 318.574 1222.384 329.876 C 1222.503 337.822 1222.407 345.771 1222.407 354.313 C 1219.886 354.601 1218.027 354.814 1215.306 355.028 Z" style=""/>
  <path opacity="1.000000" stroke="none" d="M 668.933 156.143 C 675.64 139.782 682.057 124.131 688.49 108.439 C 694.837 108.439 700.61 108.439 707.637 108.439 C 694.688 137.897 682.172 166.368 669.609 194.948 C 663.783 194.948 658.512 194.948 652.048 194.948 C 639.73 166.708 627.199 137.98 614.251 108.296 C 621.3 108.296 626.842 108.296 633.046 108.296 C 641.971 129.959 650.945 151.741 660.675 175.358 C 663.775 168.157 666.208 162.506 668.933 156.143 Z" style=""/>
  <path opacity="1.000000" stroke="none" d="M 638.141 319.175 C 638.141 292.299 638.141 266.423 638.141 240.006 C 644.331 240.006 649.502 240.006 655.193 240.006 C 655.193 277.996 655.193 315.83 655.193 354.362 C 650.053 354.362 644.937 354.362 638.499 354.362 C 637.699 343.155 638.34 331.644 638.141 319.175 Z" style=""/>
  <path opacity="1.000000" stroke="none" d="M 687.124 239.463 C 689.733 240.566 691.885 241.342 692.994 242.874 C 693.798 243.984 693.251 246.095 693.252 247.76 C 693.259 281.424 693.263 315.089 693.245 348.754 C 693.244 350.377 693.033 352 692.872 354.319 C 687.429 354.319 682.259 354.319 676.98 354.319 C 675.045 347.716 674.576 252.038 676.692 239.46 C 679.738 239.46 682.98 239.46 687.124 239.463 Z" style=""/>
  <path opacity="1.000000" stroke="none" d="M 1265.045 195.148 C 1260.216 195.173 1256.31 195.173 1252.021 195.173 C 1252.021 156.331 1252.021 118.535 1252.021 80.099 C 1255.076 79.927 1257.652 79.672 1260.229 79.667 C 1262.836 79.663 1265.442 79.907 1268.627 80.073 C 1268.872 83 1269.268 85.554 1269.272 88.109 C 1269.313 120.759 1269.367 153.41 1269.189 186.059 C 1269.172 189.185 1271.52 193.733 1265.045 195.148 Z" style=""/>
  <path opacity="1.000000" stroke="none" d="M 727.291 107.78 C 730.098 107.958 732.029 108.135 734.494 108.361 C 734.494 137.262 734.494 165.697 734.494 194.674 C 728.955 194.674 723.832 194.674 718.181 194.674 C 718.181 166.028 718.181 137.828 718.181 108.485 C 720.796 108.261 723.605 108.02 727.291 107.78 Z" style=""/>
  <path opacity="1.000000" stroke="none" d="M 729.529 270.058 C 729.747 298.493 729.747 326.029 729.747 354.286 C 724.159 354.286 719.038 354.286 713.357 354.286 C 713.357 325.66 713.357 296.943 713.357 267.031 C 719.162 267.805 724.236 268.482 729.529 270.058 Z" style=""/>
  <path opacity="1.000000" stroke="none" d="M 719.917 255.347 C 712.161 251.822 710.194 248.808 711.615 243.661 C 712.846 239.204 717.087 236.631 722.45 237.089 C 727.317 237.505 730.915 240.449 731.518 244.701 C 732.218 249.63 730.06 253.052 725.499 254.797 C 724.016 255.365 722.262 255.224 719.917 255.347 Z" style=""/>
  <path opacity="1.000000" stroke="none" d="M 732.943 79.172 C 737.031 83.019 737.882 86.919 735.254 91.149 C 732.895 94.945 729.122 95.832 724.948 95.421 C 719.766 94.911 716.311 91.312 716.253 86.468 C 716.195 81.67 719.554 77.732 724.755 77.361 C 727.225 77.184 729.784 78.258 732.943 79.172 Z" style=""/>
</svg>