<svg width="176" height="35" viewBox="0 0 176 35" fill="none" xmlns="http://www.w3.org/2000/svg">
    <path d="M10 15.4375L17.0857 19.5625V27.8125L10 31.9375L2.91434 27.8125V19.5625L10 15.4375Z" fill="#EFFCFF" stroke="#EFFCFF" stroke-width="4"/>
    <path d="M24.3182 15.4375L31.4038 19.5625V27.8125L24.3182 31.9375L17.2325 27.8125V19.5625L24.3182 15.4375Z" stroke="#EFFCFF" stroke-width="4"/>
    <path d="M31.6818 3.0625L38.7675 7.1875V15.4375L31.6818 19.5625L24.5962 15.4375V7.1875L31.6818 3.0625Z" stroke="#EFFCFF" stroke-width="4"/>
    <path d="M48.0451 3.44239L53.7724 11.234L48.1931 19.1341L39.0177 16.225L38.9262 6.52694L48.0451 3.44239Z" fill="#EFFCFF" stroke="#EFFCFF" stroke-width="4"/>
    <path d="M64.54 18V4.04H71.14C71.7933 4.04 72.38 4.15333 72.9 4.38C73.42 4.59333 73.86 4.89333 74.22 5.28C74.5933 5.66667 74.88 6.14 75.08 6.7C75.28 7.24667 75.38 7.84667 75.38 8.5C75.38 9.16667 75.28 9.77333 75.08 10.32C74.88 10.8667 74.5933 11.3333 74.22 11.72C73.86 12.1067 73.42 12.4133 72.9 12.64C72.38 12.8533 71.7933 12.96 71.14 12.96H67.58V18H64.54ZM67.58 10.32H70.78C71.2333 10.32 71.5867 10.2067 71.84 9.98C72.1067 9.74 72.24 9.39333 72.24 8.94V8.06C72.24 7.60667 72.1067 7.26667 71.84 7.04C71.5867 6.8 71.2333 6.68 70.78 6.68H67.58V10.32ZM83.305 18.24C82.3583 18.24 81.505 18.0933 80.745 17.8C79.985 17.4933 79.3383 17.0467 78.805 16.46C78.2717 15.86 77.8583 15.12 77.565 14.24C77.2717 13.3467 77.125 12.3067 77.125 11.12C77.125 9.94667 77.2717 8.90667 77.565 8C77.8583 7.08 78.2717 6.31333 78.805 5.7C79.3383 5.07333 79.985 4.6 80.745 4.28C81.505 3.96 82.3583 3.8 83.305 3.8C84.5983 3.8 85.665 4.06667 86.505 4.6C87.345 5.12 88.0183 5.94667 88.525 7.08L85.905 8.44C85.7183 7.85333 85.425 7.38667 85.025 7.04C84.6383 6.68 84.065 6.5 83.305 6.5C82.4117 6.5 81.6917 6.79333 81.145 7.38C80.6117 7.95333 80.345 8.79333 80.345 9.9V12.14C80.345 13.2467 80.6117 14.0933 81.145 14.68C81.6917 15.2533 82.4117 15.54 83.305 15.54C84.0517 15.54 84.645 15.34 85.085 14.94C85.5383 14.5267 85.8717 14.0333 86.085 13.46L88.565 14.9C88.045 15.9667 87.3583 16.7933 86.505 17.38C85.665 17.9533 84.5983 18.24 83.305 18.24ZM96.0384 18.24C95.1184 18.24 94.2784 18.0867 93.5184 17.78C92.7584 17.4733 92.1118 17.02 91.5784 16.42C91.0451 15.8067 90.6318 15.0533 90.3384 14.16C90.0451 13.2533 89.8984 12.2067 89.8984 11.02C89.8984 9.83333 90.0451 8.79333 90.3384 7.9C90.6318 6.99333 91.0451 6.24 91.5784 5.64C92.1118 5.02667 92.7584 4.56667 93.5184 4.26C94.2784 3.95333 95.1184 3.8 96.0384 3.8C96.9584 3.8 97.7984 3.95333 98.5584 4.26C99.3184 4.56667 99.9651 5.02667 100.498 5.64C101.032 6.24 101.445 6.99333 101.738 7.9C102.032 8.79333 102.178 9.83333 102.178 11.02C102.178 12.2067 102.032 13.2533 101.738 14.16C101.445 15.0533 101.032 15.8067 100.498 16.42C99.9651 17.02 99.3184 17.4733 98.5584 17.78C97.7984 18.0867 96.9584 18.24 96.0384 18.24ZM96.0384 15.54C96.9584 15.54 97.6718 15.24 98.1784 14.64C98.6984 14.04 98.9584 13.18 98.9584 12.06V9.98C98.9584 8.86 98.6984 8 98.1784 7.4C97.6718 6.8 96.9584 6.5 96.0384 6.5C95.1184 6.5 94.3984 6.8 93.8784 7.4C93.3718 8 93.1184 8.86 93.1184 9.98V12.06C93.1184 13.18 93.3718 14.04 93.8784 14.64C94.3984 15.24 95.1184 15.54 96.0384 15.54ZM109.158 18.24C107.931 18.24 106.891 18.0333 106.038 17.62C105.184 17.1933 104.458 16.6467 103.858 15.98L105.858 13.96C106.804 15.0267 107.971 15.56 109.358 15.56C110.104 15.56 110.658 15.4067 111.018 15.1C111.378 14.7933 111.558 14.3867 111.558 13.88C111.558 13.4933 111.451 13.1733 111.238 12.92C111.024 12.6533 110.591 12.4733 109.938 12.38L108.558 12.2C107.078 12.0133 105.991 11.5667 105.298 10.86C104.618 10.1533 104.278 9.21333 104.278 8.04C104.278 7.41333 104.398 6.84 104.638 6.32C104.878 5.8 105.218 5.35333 105.658 4.98C106.111 4.60667 106.658 4.32 107.298 4.12C107.951 3.90667 108.691 3.8 109.518 3.8C110.571 3.8 111.498 3.96667 112.298 4.3C113.098 4.63333 113.784 5.12 114.358 5.76L112.338 7.8C112.004 7.41333 111.598 7.1 111.118 6.86C110.651 6.60667 110.058 6.48 109.338 6.48C108.658 6.48 108.151 6.6 107.818 6.84C107.484 7.08 107.318 7.41333 107.318 7.84C107.318 8.32 107.444 8.66667 107.698 8.88C107.964 9.09333 108.391 9.24667 108.978 9.34L110.358 9.56C111.798 9.78667 112.864 10.2333 113.558 10.9C114.251 11.5533 114.598 12.4867 114.598 13.7C114.598 14.3667 114.478 14.98 114.238 15.54C113.998 16.1 113.644 16.58 113.178 16.98C112.724 17.38 112.158 17.6933 111.478 17.92C110.798 18.1333 110.024 18.24 109.158 18.24ZM126.105 11.4L124.765 8.6H124.705V18H121.845V4.04H125.165L128.985 10.64L130.325 13.44H130.385V4.04H133.245V18H129.925L126.105 11.4ZM140.417 18.24C139.644 18.24 138.951 18.1133 138.337 17.86C137.737 17.6067 137.224 17.24 136.797 16.76C136.384 16.28 136.064 15.7 135.837 15.02C135.611 14.34 135.497 13.58 135.497 12.74C135.497 11.9 135.611 11.14 135.837 10.46C136.064 9.78 136.384 9.20667 136.797 8.74C137.224 8.26 137.737 7.89333 138.337 7.64C138.951 7.38667 139.644 7.26 140.417 7.26C141.191 7.26 141.877 7.38667 142.477 7.64C143.091 7.89333 143.604 8.26 144.017 8.74C144.444 9.20667 144.771 9.78 144.997 10.46C145.224 11.14 145.337 11.9 145.337 12.74C145.337 13.58 145.224 14.34 144.997 15.02C144.771 15.7 144.444 16.28 144.017 16.76C143.604 17.24 143.091 17.6067 142.477 17.86C141.877 18.1133 141.191 18.24 140.417 18.24ZM140.417 15.9C141.004 15.9 141.457 15.72 141.777 15.36C142.097 15 142.257 14.4867 142.257 13.82V11.68C142.257 11.0133 142.097 10.5 141.777 10.14C141.457 9.78 141.004 9.6 140.417 9.6C139.831 9.6 139.377 9.78 139.057 10.14C138.737 10.5 138.577 11.0133 138.577 11.68V13.82C138.577 14.4867 138.737 15 139.057 15.36C139.377 15.72 139.831 15.9 140.417 15.9ZM147.446 18V7.5H150.406V9.78H150.506C150.56 9.48667 150.653 9.20667 150.786 8.94C150.92 8.66 151.093 8.41333 151.306 8.2C151.533 7.98667 151.8 7.82 152.106 7.7C152.413 7.56667 152.773 7.5 153.186 7.5H153.706V10.26H152.966C152.1 10.26 151.453 10.3733 151.026 10.6C150.613 10.8267 150.406 11.2467 150.406 11.86V18H147.446ZM164.979 18.76C164.979 19.32 164.879 19.8133 164.679 20.24C164.492 20.6667 164.179 21.0267 163.739 21.32C163.299 21.6267 162.712 21.8533 161.979 22C161.259 22.16 160.366 22.24 159.299 22.24C158.392 22.24 157.619 22.18 156.979 22.06C156.352 21.9533 155.839 21.7933 155.439 21.58C155.052 21.38 154.766 21.1267 154.579 20.82C154.406 20.5267 154.319 20.1867 154.319 19.8C154.319 19.2133 154.492 18.7533 154.839 18.42C155.186 18.0867 155.666 17.88 156.279 17.8V17.58C155.772 17.4867 155.392 17.2733 155.139 16.94C154.886 16.5933 154.759 16.1933 154.759 15.74C154.759 15.46 154.812 15.22 154.919 15.02C155.039 14.8067 155.186 14.6267 155.359 14.48C155.546 14.32 155.759 14.1933 155.999 14.1C156.239 14.0067 156.479 13.9333 156.719 13.88V13.8C156.079 13.5067 155.606 13.1067 155.299 12.6C154.992 12.08 154.839 11.48 154.839 10.8C154.839 9.73333 155.206 8.88 155.939 8.24C156.686 7.58667 157.819 7.26 159.339 7.26C160.032 7.26 160.626 7.32667 161.119 7.46V7.06C161.119 6.5 161.252 6.1 161.519 5.86C161.799 5.60667 162.192 5.48 162.699 5.48H164.359V7.68H162.039V7.8C162.652 8.09333 163.106 8.5 163.399 9.02C163.692 9.52667 163.839 10.12 163.839 10.8C163.839 11.8533 163.466 12.7 162.719 13.34C161.986 13.9667 160.859 14.28 159.339 14.28C158.659 14.28 158.039 14.2067 157.479 14.06C157.172 14.26 157.019 14.54 157.019 14.9C157.019 15.1533 157.112 15.3533 157.299 15.5C157.499 15.6333 157.826 15.7 158.279 15.7H161.319C162.599 15.7 163.526 15.9667 164.099 16.5C164.686 17.0333 164.979 17.7867 164.979 18.76ZM162.199 19.16C162.199 18.8533 162.079 18.62 161.839 18.46C161.599 18.3 161.179 18.22 160.579 18.22H156.979C156.846 18.3533 156.746 18.5 156.679 18.66C156.626 18.8333 156.599 19 156.599 19.16C156.599 19.5467 156.766 19.8267 157.099 20C157.432 20.1867 157.999 20.28 158.799 20.28H159.999C160.799 20.28 161.366 20.1867 161.699 20C162.032 19.8267 162.199 19.5467 162.199 19.16ZM159.339 12.34C159.926 12.34 160.359 12.22 160.639 11.98C160.932 11.7267 161.079 11.3667 161.079 10.9V10.66C161.079 10.1933 160.932 9.84 160.639 9.6C160.359 9.34667 159.926 9.22 159.339 9.22C158.752 9.22 158.312 9.34667 158.019 9.6C157.739 9.84 157.599 10.1933 157.599 10.66V10.9C157.599 11.3667 157.739 11.7267 158.019 11.98C158.312 12.22 158.752 12.34 159.339 12.34ZM170.557 18.24C169.757 18.24 169.044 18.1133 168.417 17.86C167.79 17.5933 167.257 17.2267 166.817 16.76C166.39 16.28 166.064 15.7 165.837 15.02C165.624 14.34 165.517 13.58 165.517 12.74C165.517 11.9133 165.624 11.1667 165.837 10.5C166.05 9.82 166.364 9.24 166.777 8.76C167.204 8.28 167.724 7.91333 168.337 7.66C168.95 7.39333 169.65 7.26 170.437 7.26C171.304 7.26 172.044 7.40667 172.657 7.7C173.284 7.99333 173.79 8.38667 174.177 8.88C174.577 9.37333 174.864 9.94667 175.037 10.6C175.224 11.24 175.317 11.9133 175.317 12.62V13.5H168.577V13.66C168.577 14.3533 168.764 14.9067 169.137 15.32C169.51 15.72 170.097 15.92 170.897 15.92C171.51 15.92 172.01 15.8 172.397 15.56C172.784 15.3067 173.144 15.0067 173.477 14.66L174.957 16.5C174.49 17.0467 173.877 17.4733 173.117 17.78C172.37 18.0867 171.517 18.24 170.557 18.24ZM170.497 9.44C169.897 9.44 169.424 9.64 169.077 10.04C168.744 10.4267 168.577 10.9467 168.577 11.6V11.76H172.257V11.58C172.257 10.94 172.11 10.4267 171.817 10.04C171.537 9.64 171.097 9.44 170.497 9.44Z" fill="#EFFCFF"/>
</svg>
