<svg width="335" height="65" viewBox="0 0 236 47" fill="none" xmlns="http://www.w3.org/2000/svg" class="logo-full">
    <g class="logo-full__text">
        <g class="logo-full__text-bottom" fill="black">
            <path d="M61.4001 34.4C60.9001 34.4 60.4 34.4 59.8 34.3C59.3 34.2 58.8001 34.1 58.4001 33.9C58.1001 33.8 57.9001 33.7 57.9001 33.6C57.8001 33.5 57.8 33.4 57.8 33.2V31.8C57.8 31.6 57.9 31.4 58.1 31.4C58.2 31.4 58.4 31.5 58.8 31.7C59.2 31.9 59.5001 32.1 59.9001 32.2C60.3001 32.3 60.7 32.4 61.1 32.4C61.5 32.4 61.8 32.4 62.1 32.3C62.4 32.2 62.7001 32 62.9001 31.8C63.1001 31.5 63.2001 31.2 63.2001 30.9C63.2001 30.6 63.1001 30.3 62.9001 30C62.7001 29.7 62.4 29.5 62 29.3L60.1 28C59.4 27.6 58.9 27.2 58.6 26.6C58.3 26 58.1 25.4 58.1 24.6C58.1 23.4 58.5001 22.5 59.2001 21.9C60.0001 21.3 61.1 21 62.5 21C62.9 21 63.3 21 63.6 21.1C64 21.2 64.3 21.2 64.6 21.3C64.9 21.4 65.2001 21.5 65.4001 21.6C65.6001 21.7 65.7 21.7 65.7 21.9C65.8 22 65.8001 22.1 65.8001 22.3V23.5C65.8001 23.8 65.7 23.9 65.5 23.9C65.4 23.9 65.2001 23.8 64.8001 23.6C64.4001 23.4 64.0001 23.3 63.7001 23.2C63.3001 23.1 63 23.1 62.6 23.1C62.2 23.1 61.9 23.2 61.6 23.3C61.3 23.4 61.1 23.6 61 23.8C60.9 24 60.8 24.3 60.8 24.5C60.8 24.8 60.9 25.1 61.1 25.3C61.3 25.5 61.6 25.8 62 26L63.6 26.9C64.5 27.4 65.1 27.9 65.5 28.5C65.9 29.1 66.1 29.8 66.1 30.7C66.1 33.1 64.6001 34.4 61.4001 34.4Z"/>
            <path d="M72.7001 34.3C71.7001 34.3 70.9001 34.1 70.4001 33.6C69.9001 33.1 69.6001 32.4 69.6001 31.4C69.6001 30.6 69.8001 29.9 70.3001 29.3C70.8001 28.8 71.6001 28.4 72.7001 28.1L74.8001 27.5C75.1001 27.4 75.3001 27.3 75.4001 27.2C75.5001 27.1 75.5001 27 75.5001 26.8V26.7C75.5001 26.4 75.4001 26.1 75.1001 26C74.8001 25.9 74.4001 25.8 74.0001 25.8C73.6001 25.8 73.2001 25.8 72.8001 25.9C72.4001 26 71.9001 26.1 71.4001 26.3C70.9001 26.5 70.6001 26.5 70.5001 26.5C70.3001 26.5 70.2001 26.4 70.2001 26.2V25.3C70.2001 25.1 70.2001 25 70.3001 24.9C70.4001 24.8 70.4001 24.7 70.5001 24.7C70.6001 24.6 70.7001 24.6 70.7001 24.6C71.0001 24.4 71.5001 24.3 72.1001 24.2C72.8001 24 73.4001 24 74.0001 24C75.4001 24 76.4001 24.3 77.1001 24.8C77.7001 25.3 78.1001 26.1 78.1001 27.2V33.9C78.1001 34 78.1001 34.1 78.0001 34.2C77.9001 34.3 77.8001 34.3 77.7001 34.3H75.8001C75.6001 34.3 75.5001 34.2 75.5001 34.1C75.5001 34 75.4001 33.9 75.3001 33.9C75.2001 33.9 75.0001 34 74.7001 34.1C74.3001 34.2 74.0001 34.3 73.6001 34.4C73.4001 34.3 73.0001 34.3 72.7001 34.3ZM73.7001 32.6C74.2001 32.6 74.7001 32.5 75.1001 32.3C75.4001 32.1 75.6001 31.8 75.6001 31.3V29.4C75.6001 29.3 75.6001 29.2 75.5001 29.2L75.4001 29.1C75.3001 29.1 74.8001 29.2 74.0001 29.4C73.2001 29.6 72.7001 29.9 72.4001 30.2C72.2001 30.5 72.0001 30.8 72.0001 31.2C72.0001 31.4 72.1001 31.7 72.2001 31.9C72.3001 32.1 72.5001 32.3 72.8001 32.4C73.0001 32.5 73.3001 32.6 73.7001 32.6Z"/>
            <path d="M83.1001 34.2C83.0001 34.2 82.9001 34.1999 82.8001 34.0999C82.7001 33.9999 82.7001 33.9999 82.7001 33.7999V24.6C82.7001 24.4 82.8001 24.2999 83.0001 24.2999H85.1001C85.2001 24.2999 85.3001 24.3 85.3001 24.4C85.3001 24.5 85.4001 24.5 85.4001 24.6C85.4001 24.7 85.5001 24.7999 85.6001 24.7999C85.7001 24.7999 86.0001 24.7 86.4001 24.6C86.8001 24.4 87.1001 24.2999 87.5001 24.2999C87.8001 24.1999 88.1001 24.2 88.5001 24.2C89.0001 24.2 89.4001 24.3 89.9001 24.4C90.3001 24.5 90.7001 24.7 91.0001 25C91.3001 25.3 91.5001 25.7 91.7001 26.2C91.9001 26.7 91.9001 27.3999 91.9001 28.2999V34C91.9001 34.1 91.9001 34.1999 91.8001 34.2999C91.7001 34.4 91.7001 34.4 91.5001 34.4H89.4001C89.3001 34.4 89.2001 34.4 89.2001 34.2999C89.1001 34.1999 89.1001 34.2 89.1001 34V28.5C89.1001 28.1 89.1001 27.6999 89.0001 27.4C88.9001 27.1 88.9001 26.9 88.7001 26.7C88.6001 26.5 88.4001 26.3999 88.2001 26.2999C88.0001 26.1999 87.7001 26.2 87.3001 26.2C87.0001 26.2 86.7001 26.1999 86.4001 26.2999C86.1001 26.3999 85.9001 26.5 85.8001 26.7C85.7001 26.9 85.6001 27.0999 85.6001 27.2999V34.0999C85.6001 34.2999 85.5001 34.4 85.3001 34.4H83.1001V34.2Z"/>
            <path d="M97.9 22.8C97.4 22.8 97 22.7 96.7 22.4C96.4 22.2 96.3 21.8 96.3 21.4C96.3 21.1 96.4 20.8 96.5 20.6C96.7 20.4 96.9 20.2 97.2 20.1C97.5 20 97.7 20 98 20C98.5 20 98.9 20.1 99.2 20.4C99.5 20.6 99.6 21 99.6 21.4C99.6 21.7 99.5 22 99.4 22.2C99.2 22.4 99 22.6 98.8 22.6C98.4 22.8 98.1 22.8 97.9 22.8ZM96.9 34.2C96.8 34.2 96.7 34.2 96.6 34.1C96.5 34 96.5 34 96.5 33.8V24.6C96.5 24.5 96.5 24.4 96.6 24.3C96.7 24.2 96.7 24.2 96.9 24.2H99C99.1 24.2 99.2 24.2 99.3 24.3C99.4 24.4 99.4 24.5 99.4 24.6V33.8C99.4 33.9 99.4 34 99.3 34.1C99.2 34.2 99.2 34.2 99 34.2H96.9Z"/>
            <path d="M108 34.3C107.4 34.3 107 34.2 106.6 34.1C106.2 34 105.9 33.9001 105.7 33.7001C105.5 33.5001 105.3 33.3 105.1 33.1C105 32.9 104.8 32.6 104.8 32.3C104.7 32 104.7 31.6 104.7 31.3V26.3C104.7 26.1 104.6 26.1 104.5 26.1H103.4C103.2 26.1 103.1 26 103.1 25.8V24.6C103.1 24.4 103.2 24.3 103.4 24.3H104.5C104.6 24.3 104.7 24.2 104.7 24.1V22.2001C104.7 22.1001 104.7 22 104.8 21.9C104.9 21.8 104.9 21.8 105 21.8H107.1C107.3 21.8 107.4 21.9 107.4 22.1V24C107.4 24.2 107.5 24.2001 107.6 24.2001H110C110.1 24.2001 110.2 24.2 110.3 24.3C110.4 24.4 110.4 24.4 110.4 24.6V25.8C110.4 25.9 110.4 26.0001 110.3 26.1C110.2 26.2 110.1 26.2001 110 26.2001H107.6C107.5 26.2001 107.5 26.2 107.4 26.3C107.4 26.3 107.3 26.4 107.3 26.5V31C107.3 31.2 107.3 31.5001 107.4 31.7001C107.5 31.9001 107.6 32.1 107.8 32.2001C108 32.3001 108.3 32.4001 108.6 32.4001C108.9 32.4001 109.2 32.3001 109.5 32.2001C109.8 32.1 109.9 32 110 32H110.1C110.2 32 110.2 32 110.3 32.1C110.4 32.1 110.4 32.2 110.4 32.3V33.6C110.4 33.8 110.3 34 110 34.1C109.7 34.2 109.4 34.3001 109 34.4001C108.7 34.3001 108.3 34.3 108 34.3Z"/>
            <path d="M119.1 34.3C117.8 34.3 116.8 34.1 116 33.7C115.2 33.3 114.5 32.8 114.2 32C113.8 31.2 113.6 30.3 113.6 29.2C113.6 28.4 113.7 27.6 113.9 27C114.1 26.3 114.5 25.8 114.9 25.3C115.3 24.9 115.9 24.5 116.5 24.3C117.1 24.1 117.8 24 118.5 24C121.6 24 123.1 25.8 123.1 29.4C123.1 29.5 123.1 29.6 123 29.7C122.9 29.8 122.9 29.8 122.7 29.8H116.6C116.5 29.8 116.4 29.8 116.4 29.9C116.4 30 116.3 30.1 116.3 30.2C116.3 30.6 116.4 30.9 116.5 31.2C116.7 31.5 116.9 31.7 117.1 31.9C117.4 32.1 117.7 32.2 118.1 32.3C118.5 32.4 118.9 32.4 119.2 32.4C119.6 32.4 119.9 32.4 120.3 32.3C120.7 32.2 121 32.1 121.4 32C121.8 31.9 122 31.8 122.1 31.8C122.3 31.8 122.4 31.9 122.4 32.2V33.3C122.4 33.4 122.4 33.5 122.3 33.6C122.2 33.7 122.1 33.8 122 33.8C121.7 33.9 121.3 34.1 120.7 34.1C120.3 34.2 119.7 34.3 119.1 34.3ZM116.6 28.1H120.1C120.2 28.1 120.3 28.1 120.3 28C120.3 28 120.3 27.9 120.3 27.8C120.3 27.4 120.2 27 120 26.7C119.8 26.4 119.6 26.1 119.3 26C119 25.9 118.7 25.8 118.3 25.8C118.1 25.8 117.8 25.8 117.6 25.9C117.3 26 117.1 26.1 116.9 26.3C116.7 26.5 116.5 26.7 116.4 27C116.3 27.3 116.2 27.6 116.2 27.9C116.2 28 116.2 28.1 116.2 28.1C116.5 28.1 116.5 28.1 116.6 28.1Z"/>
            <path d="M131 34.3C130.4 34.3 130 34.2 129.6 34.1C129.2 34 128.9 33.9001 128.7 33.7001C128.5 33.5001 128.3 33.3 128.1 33.1C128 32.9 127.8 32.6 127.8 32.3C127.7 32 127.7 31.6 127.7 31.3V26.3C127.7 26.1 127.6 26.1 127.5 26.1H126.4C126.2 26.1 126.1 26 126.1 25.8V24.6C126.1 24.4 126.2 24.3 126.4 24.3H127.5C127.6 24.3 127.7 24.2 127.7 24.1V22.2001C127.7 22.1001 127.7 22 127.8 21.9C127.9 21.8 127.9 21.8 128 21.8H130.1C130.3 21.8 130.4 21.9 130.4 22.1V24C130.4 24.2 130.5 24.2001 130.6 24.2001H133C133.1 24.2001 133.2 24.2 133.3 24.3C133.4 24.4 133.4 24.4 133.4 24.6V25.8C133.4 25.9 133.4 26.0001 133.3 26.1C133.2 26.2 133.1 26.2001 133 26.2001H130.6C130.5 26.2001 130.5 26.2 130.4 26.3C130.4 26.3 130.3 26.4 130.3 26.5V31C130.3 31.2 130.3 31.5001 130.4 31.7001C130.5 31.9001 130.6 32.1 130.8 32.2001C131 32.3001 131.3 32.4001 131.6 32.4001C131.9 32.4001 132.2 32.3001 132.5 32.2001C132.8 32.1 132.9 32 133 32H133.1C133.2 32 133.2 32 133.3 32.1C133.4 32.1 133.4 32.2 133.4 32.3V33.6C133.4 33.8 133.3 34 133 34.1C132.7 34.2 132.4 34.3001 132 34.4001C131.7 34.3001 131.3 34.3 131 34.3Z"/>
            <path d="M140.1 34.3C139.7 34.3 139.2 34.3 138.7 34.2C138.2 34.1 137.8 34 137.5 33.9C137.3 33.8 137.2 33.8 137.1 33.7C137 33.6 137 33.5 137 33.3V32.1C137 31.9 137.1 31.7 137.3 31.7C137.4 31.7 137.6 31.8 137.9 31.9C138.2 32 138.6 32.2 138.9 32.3C139.2 32.4 139.6 32.4 139.9 32.4C140.9 32.4 141.3 32.1 141.3 31.5C141.3 31.3 141.2 31.1 141.1 31C141 30.9 140.8 30.7 140.6 30.6C140.4 30.5 140.1 30.3 139.9 30.2L138.8 29.6C138.4 29.3 138 29.1 137.7 28.8C137.4 28.5 137.3 28.2 137.2 27.9C137.1 27.6 137.1 27.3 137.1 27C137.1 26.6 137.2 26.2 137.3 25.8C137.5 25.4 137.7 25.1 138 24.9C138.3 24.6 138.7 24.4 139.2 24.3C139.7 24.2 140.2 24.1 140.9 24.1C141.3 24.1 141.7 24.1 142.1 24.2C142.5 24.3 142.8 24.4 143.1 24.5C143.3 24.6 143.4 24.7 143.5 24.8C143.6 24.9 143.6 25 143.6 25.2V26.3C143.6 26.5 143.5 26.6 143.3 26.6C143.2 26.6 143 26.5 142.7 26.4C142.4 26.2 142.1 26.1 141.8 26.1C141.5 26 141.2 26 141 26C140.7 26 140.4 26 140.2 26.1C140 26.2 139.8 26.3 139.8 26.4C139.7 26.5 139.7 26.7 139.7 26.8C139.7 27 139.8 27.2 139.9 27.4C140 27.6 140.3 27.8 140.8 28.1L141.8 28.7C142.2 28.9 142.6 29.1 142.9 29.4C143.2 29.6 143.4 29.9 143.6 30.2C143.8 30.5 143.9 30.9 143.9 31.4C144 33.2 142.7 34.3 140.1 34.3Z"/>
            <path d="M149.1 34.2C149 34.2 148.9 34.2 148.9 34.1C148.8 34 148.8 34 148.8 33.9V26.4C148.8 26.2 148.7 26.2 148.6 26.2H147.6C147.4 26.2 147.2 26.1 147.2 25.9V24.7C147.2 24.5 147.3 24.4 147.6 24.4H148.6C148.8 24.4 148.8 24.3 148.8 24.2V23.4C148.8 22.4 149 21.7 149.5 21.3C150 20.8 150.7 20.5 151.7 20.5C152.2 20.5 152.6 20.5 152.9 20.6C153.2 20.7 153.4 20.8 153.5 20.9C153.6 21 153.7 21.1 153.7 21.2V22.2C153.7 22.4 153.6 22.5 153.5 22.5C153.4 22.5 153.3 22.5 153.1 22.4C152.9 22.3 152.7 22.3 152.5 22.3C152.3 22.3 152.2 22.3 152 22.4C151.9 22.5 151.7 22.6 151.7 22.8C151.6 23 151.6 23.3 151.6 23.6V24C151.6 24.2 151.7 24.2 151.8 24.2H153.2C153.4 24.2 153.5 24.3 153.5 24.5V25.7C153.5 25.9 153.4 26 153.2 26H151.8C151.6 26 151.6 26.1 151.6 26.2V33.7C151.6 33.8 151.6 33.9 151.5 33.9C151.4 34 151.4 34 151.3 34H149.1V34.2Z"/>
            <path d="M161.4 34.3C160.5 34.3 159.8 34.2 159.1 33.9C158.4 33.7 157.9 33.3 157.5 32.9C157.1 32.4 156.8 31.9 156.6 31.3C156.4 30.7 156.3 30 156.3 29.2C156.3 28.5 156.4 27.8 156.6 27.1C156.8 26.5 157.1 25.9 157.5 25.5C157.9 25 158.5 24.7 159.1 24.4C159.8 24.1 160.5 24 161.4 24C162.4 24 163.3 24.2 164.1 24.6C164.9 25 165.5 25.6 165.9 26.4C166.3 27.2 166.5 28.1 166.5 29.2C166.5 29.7 166.5 30.1 166.4 30.6C166.3 31.1 166.2 31.5 165.9 32C165.7 32.5 165.4 32.9 165 33.2C164.6 33.6 164.1 33.8 163.5 34C162.8 34.2 162.1 34.3 161.4 34.3ZM161.4 32.4C162.1 32.4 162.7 32.1 163.1 31.6C163.5 31.1 163.7 30.2 163.7 29.1C163.7 28 163.5 27.1 163.2 26.6C162.8 26.1 162.3 25.8 161.5 25.8C160.7 25.8 160.1 26.1 159.8 26.6C159.4 27.1 159.3 28 159.3 29.1C159.3 30.2 159.5 31 159.9 31.6C160 32.2 160.6 32.4 161.4 32.4Z"/>
            <path d="M170.5 34.2C170.4 34.2 170.3 34.2 170.3 34.1C170.2 34 170.2 34 170.2 33.9V24.7C170.2 24.5 170.3 24.4 170.5 24.4H172.6C172.7 24.4 172.8 24.4 172.8 24.5C172.8 24.5 172.9 24.6 172.9 24.7C172.9 24.8 172.9 24.9 173 24.9H173.1C173.2 24.9 173.4 24.8 173.8 24.6C174.1 24.4 174.4 24.3 174.7 24.2C175 24.1 175.2 24.1 175.5 24.1C175.7 24.1 175.9 24.1 176.1 24.2C176.2 24.3 176.3 24.3 176.3 24.4C176.3 24.5 176.3 24.6 176.3 24.6V26C176.3 26.1 176.3 26.2 176.2 26.2C176.2 26.3 176.1 26.3 176 26.3C175.9 26.3 175.8 26.3 175.5 26.3C175.3 26.3 175 26.3 174.8 26.3C174.2 26.3 173.7 26.4 173.4 26.7C173.1 27 172.9 27.4 172.9 27.9V33.8C172.9 33.9 172.9 34 172.8 34C172.7 34.1 172.7 34.1 172.6 34.1H170.5V34.2Z"/>
            <path d="M184.1 34.3C182.8 34.3 181.8 34.1 181 33.7C180.2 33.3 179.5 32.8 179.2 32C178.8 31.2 178.6 30.3 178.6 29.2C178.6 28.4 178.7 27.6 178.9 27C179.1 26.3 179.5 25.8 179.9 25.3C180.3 24.9 180.9 24.5 181.5 24.3C182.1 24.1 182.8 24 183.5 24C186.6 24 188.1 25.8 188.1 29.4C188.1 29.5 188.1 29.6 188 29.7C187.9 29.8 187.9 29.8 187.7 29.8H181.6C181.5 29.8 181.4 29.8 181.4 29.9C181.4 30 181.3 30.1 181.3 30.2C181.3 30.6 181.4 30.9 181.5 31.2C181.7 31.5 181.9 31.7 182.1 31.9C182.4 32.1 182.7 32.2 183.1 32.3C183.5 32.4 183.9 32.4 184.2 32.4C184.6 32.4 184.9 32.4 185.3 32.3C185.7 32.2 186 32.1 186.4 32C186.8 31.9 187 31.8 187.1 31.8C187.3 31.8 187.4 31.9 187.4 32.2V33.3C187.4 33.4 187.4 33.5 187.3 33.6C187.2 33.7 187.1 33.8 187 33.8C186.7 33.9 186.3 34.1 185.7 34.1C185.3 34.2 184.7 34.3 184.1 34.3ZM181.7 28.1H185.2C185.3 28.1 185.4 28.1 185.4 28C185.4 28 185.4 27.9 185.4 27.8C185.4 27.4 185.3 27 185.1 26.7C184.9 26.4 184.7 26.1 184.4 26C184.1 25.9 183.8 25.8 183.4 25.8C183.2 25.8 182.9 25.8 182.7 25.9C182.4 26 182.2 26.1 182 26.3C181.8 26.5 181.6 26.7 181.5 27C181.4 27.3 181.3 27.6 181.3 27.9C181.3 28 181.3 28.1 181.3 28.1C181.5 28.1 181.6 28.1 181.7 28.1Z"/>
            <path d="M192.1 34.2C192 34.2 191.9 34.1999 191.8 34.0999C191.7 33.9999 191.7 33.9999 191.7 33.7999V24.6C191.7 24.4 191.8 24.2999 192 24.2999H194.1C194.2 24.2999 194.3 24.3 194.3 24.4C194.3 24.5 194.4 24.5 194.4 24.6C194.4 24.7 194.5 24.7999 194.6 24.7999C194.7 24.7999 195 24.7 195.4 24.6C195.8 24.4 196.1 24.2999 196.5 24.2999C196.8 24.1999 197.1 24.2 197.5 24.2C198 24.2 198.4 24.3 198.9 24.4C199.3 24.5 199.7 24.7 200 25C200.3 25.3 200.5 25.7 200.7 26.2C200.9 26.7 200.9 27.3999 200.9 28.2999V34C200.9 34.1 200.9 34.1999 200.8 34.2999C200.7 34.4 200.7 34.4 200.5 34.4H198.4C198.3 34.4 198.2 34.4 198.2 34.2999C198.1 34.1999 198.1 34.2 198.1 34V28.5C198.1 28.1 198.1 27.6999 198 27.4C197.9 27.1 197.9 26.9 197.7 26.7C197.6 26.5 197.4 26.3999 197.2 26.2999C197 26.1999 196.7 26.2 196.3 26.2C196 26.2 195.7 26.1999 195.4 26.2999C195.1 26.3999 194.9 26.5 194.8 26.7C194.7 26.9 194.6 27.0999 194.6 27.2999V34.0999C194.6 34.2999 194.5 34.4 194.3 34.4H192.1V34.2Z"/>
            <path d="M206.9 22.8C206.4 22.8 206 22.7 205.7 22.4C205.4 22.2 205.3 21.8 205.3 21.4C205.3 21.1 205.4 20.8 205.5 20.6C205.7 20.4 205.9 20.2 206.2 20.1C206.5 20 206.7 20 207 20C207.5 20 207.9 20.1 208.2 20.4C208.5 20.6 208.6 21 208.6 21.4C208.6 21.7 208.5 22 208.4 22.2C208.2 22.4 208 22.6 207.8 22.6C207.4 22.8 207.1 22.8 206.9 22.8ZM205.9 34.2C205.8 34.2 205.7 34.2 205.6 34.1C205.5 34 205.5 34 205.5 33.8V24.6C205.5 24.5 205.5 24.4 205.6 24.3C205.7 24.2 205.7 24.2 205.9 24.2H208C208.1 24.2 208.2 24.2 208.3 24.3C208.4 24.4 208.4 24.5 208.4 24.6V33.8C208.4 33.9 208.4 34 208.3 34.1C208.2 34.2 208.2 34.2 208 34.2H205.9Z"/>
            <path d="M213.4 34.2C213.3 34.2 213.2 34.1999 213.1 34.0999C213 33.9999 213 33.9999 213 33.7999V24.6C213 24.4 213.1 24.2999 213.3 24.2999H215.4C215.5 24.2999 215.6 24.3 215.6 24.4C215.6 24.5 215.7 24.5 215.7 24.6C215.7 24.7 215.8 24.7999 215.9 24.7999C216 24.7999 216.3 24.7 216.7 24.6C217.1 24.4 217.4 24.2999 217.8 24.2999C218.1 24.1999 218.4 24.2 218.8 24.2C219.3 24.2 219.7 24.3 220.2 24.4C220.6 24.5 221 24.7 221.3 25C221.6 25.3 221.8 25.7 222 26.2C222.2 26.7 222.2 27.3999 222.2 28.2999V34C222.2 34.1 222.2 34.1999 222.1 34.2999C222 34.4 222 34.4 221.8 34.4H219.7C219.6 34.4 219.5 34.4 219.5 34.2999C219.4 34.1999 219.4 34.2 219.4 34V28.5C219.4 28.1 219.4 27.6999 219.3 27.4C219.2 27.1 219.2 26.9 219 26.7C218.9 26.5 218.7 26.3999 218.5 26.2999C218.3 26.1999 218 26.2 217.6 26.2C217.3 26.2 217 26.1999 216.7 26.2999C216.4 26.3999 216.2 26.5 216.1 26.7C216 26.9 215.9 27.0999 215.9 27.2999V34.0999C215.9 34.2999 215.8 34.4 215.6 34.4H213.4V34.2Z"/>
            <path d="M230.2 38.5C229.7 38.5 229.1 38.5 228.5 38.4C227.9 38.3 227.4 38.2 226.8 38C226.6 37.9 226.4 37.8 226.3 37.7C226.2 37.6 226.2 37.4 226.2 37.2V36.1C226.2 36 226.2 35.8 226.3 35.8C226.4 35.7 226.4 35.7 226.5 35.7C226.6 35.7 226.9 35.8 227.3 36C227.7 36.2 228.2 36.3 228.6 36.4C229 36.5 229.4 36.5 229.9 36.5C230.3 36.5 230.7 36.5 231.1 36.4C231.5 36.3 231.8 36.2 232 36C232.1 35.9 232.2 35.8 232.3 35.7C232.4 35.6 232.5 35.4 232.6 35.1C232.7 34.9 232.7 34.6 232.7 34.4V33.9C232.7 33.7 232.6 33.6 232.5 33.6C232.5 33.6 232.5 33.6 232.4 33.6C232.4 33.6 232.2 33.7 231.9 33.8C231.6 33.9 231.2 34 230.9 34.1C230.6 34.2 230.3 34.2 230 34.2C229.3 34.2 228.7 34.1 228.2 33.9C227.7 33.7 227.2 33.3 226.8 32.9C226.4 32.5 226.1 31.9 226 31.3C225.8 30.7 225.7 30 225.7 29.2C225.7 28.4 225.8 27.6 226 27C226.2 26.3 226.5 25.8 226.9 25.4C227.3 25 227.8 24.6 228.3 24.4C228.9 24.2 229.5 24.1 230.1 24.1C230.4 24.1 230.8 24.1 231 24.2C231.3 24.3 231.5 24.4 231.8 24.5C232.1 24.6 232.2 24.7 232.3 24.7C232.4 24.7 232.4 24.7 232.5 24.7C232.6 24.7 232.7 24.6 232.7 24.5C232.7 24.4 232.8 24.3 232.9 24.3H235C235.2 24.3 235.3 24.4 235.3 24.6V33.8C235.3 34.4 235.3 34.9 235.2 35.4C235.1 35.8 235 36.2 234.9 36.5C234.8 36.8 234.6 37 234.4 37.2C234.2 37.5 233.9 37.7 233.5 37.9C233.1 38.1 232.7 38.3 232.1 38.4C231.7 38.4 231 38.5 230.2 38.5ZM231 32.3C231.6 32.3 232 32.2 232.3 31.9C232.6 31.7 232.8 31.3 232.8 30.9V26.9C232.8 26.7 232.7 26.5 232.6 26.4C232.5 26.2 232.3 26.1 232 26C231.7 25.9 231.4 25.8 231.1 25.8C230.7 25.8 230.4 25.9 230.1 26C229.8 26.1 229.5 26.3 229.3 26.6C229.1 26.9 228.9 27.2 228.8 27.6C228.7 28 228.6 28.5 228.6 29.1C228.6 31.3 229.4 32.3 231 32.3Z"/>
        </g>
        <g class="logo-full__text-top" fill="black">
            <path d="M58.6 14.2C58.5 14.2 58.4 14.1 58.4 14V6.39998C58.4 6.29998 58.5 6.19998 58.6 6.19998H59.2C59.3 6.19998 59.3 6.19998 59.4 6.19998L59.5 6.29998L63.4 12.1V6.29998C63.4 6.19998 63.5 6.09998 63.6 6.09998H64.2C64.3 6.09998 64.4 6.19998 64.4 6.29998V14C64.4 14.2 64.3 14.2 64.2 14.2H63.7C63.6 14.2 63.5 14.2 63.5 14.2C63.4 14.2 63.4 14.1 63.4 14.1C63.4 14 63.3 14 63.3 13.9L59.5 8.29998V14.1C59.5 14.2 59.5 14.2 59.5 14.2C59.5 14.2 59.4 14.3 59.3 14.3H58.6V14.2Z"/>
            <path d="M70.9 14.3C70.5 14.3 70.2 14.3 69.9 14.2C69.6 14.1 69.3 14 69.1 13.8C68.9 13.6 68.7 13.4 68.5 13.2C68.3 13 68.2 12.7 68.2 12.4C68.1 12.1 68.1 11.9 68.1 11.6C68.1 11.4 68.1 11.2 68.1 11.1C68.1 10.6 68.2 10.2 68.3 9.9C68.4 9.5 68.6 9.2 68.8 8.9C69 8.6 69.3 8.4 69.7 8.3C70 8.1 70.4 8 70.9 8C71.4 8 71.8 8.1 72.1 8.2C72.5 8.3 72.8 8.6 73 8.8C73.2 9.1 73.4 9.4 73.5 9.8C73.6 10.2 73.7 10.6 73.7 11.1C73.7 11.6 73.6 12 73.5 12.4C73.4 12.8 73.2 13.1 73 13.4C72.8 13.7 72.5 13.9 72.1 14C71.8 14.2 71.4 14.3 70.9 14.3ZM70.9 13.4C71.4 13.4 71.9 13.2 72.2 12.8C72.5 12.4 72.6 11.8 72.6 11.1C72.6 10.4 72.5 9.8 72.2 9.4C71.9 9 71.5 8.8 70.9 8.8C70.6 8.8 70.4 8.9 70.1 9C69.9 9.1 69.7 9.3 69.6 9.5C69.5 9.7 69.4 9.9 69.3 10.2C69.2 10.5 69.2 10.8 69.2 11.1C69.2 12.7 69.8 13.4 70.9 13.4Z"/>
            <path d="M77.5 14.2C77.4 14.2 77.4 14.2 77.4 14.1L77.3 14V8.39997C77.3 8.29997 77.4 8.19998 77.5 8.19998H78.3H78.4C78.4 8.19998 78.5 8.29997 78.5 8.39997C78.5 8.49997 78.5 8.49998 78.5 8.49998H78.6C78.6 8.49998 78.6 8.49998 78.7 8.49998C78.7 8.49998 78.9 8.39998 79.2 8.29998C79.5 8.09998 79.8 8.09998 80.1 8.09998C80.2 8.09998 80.4 8.09998 80.4 8.09998C80.5 8.09998 80.5 8.19998 80.5 8.29998V8.89997V8.99998H80.4C80.4 8.99998 80.3 8.99998 80.1 8.99998C80 8.99998 79.8 8.99998 79.7 8.99998C79.4 8.99998 79.2 8.99998 79 9.09998C78.8 9.19998 78.7 9.29998 78.6 9.49998C78.5 9.69998 78.5 9.79998 78.5 10.1V14C78.5 14.1 78.4 14.2 78.3 14.2H77.5Z"/>
            <path d="M85 14.3C84.8 14.3 84.5 14.3 84.3 14.2C84 14.2 83.9 14.1 83.7 14.1C83.6 14.1 83.5 14 83.4 14C83.3 13.9 83.3 13.9 83.3 13.8V13.3C83.3 13.2 83.4 13.1 83.5 13.1C83.5 13.1 83.7 13.1 83.9 13.2C84.1 13.3 84.3 13.4 84.5 13.4C84.7 13.4 84.9 13.5 85.1 13.5C85.5 13.5 85.8 13.4 85.9 13.3C86.1 13.2 86.2 13 86.2 12.7C86.2 12.5 86.2 12.4 86.1 12.3C86 12.2 85.8 12 85.4 11.7L84.6 11.2C84.2 11 84 10.8 83.8 10.5C83.6 10.3 83.5 10 83.5 9.6C83.5 9.1 83.7 8.7 84 8.4C84.3 8.2 84.8 8 85.5 8C86 8 86.4 8.1 86.7 8.2C86.8 8.2 86.9 8.3 87 8.3C87 8.4 87 8.5 87 8.6V9C87 9.1 87 9.2 86.9 9.2C86.9 9.2 86.8 9.2 86.6 9.1C86.4 9 86.2 8.9 86.1 8.9C85.9 8.9 85.7 8.8 85.6 8.8C85.3 8.8 85.1 8.9 84.9 9C84.7 9.1 84.7 9.3 84.7 9.5C84.7 9.7 84.8 9.8 84.9 10C85 10.2 85.2 10.3 85.5 10.5L86.3 11C86.5 11.1 86.7 11.2 86.9 11.4C87.1 11.6 87.2 11.7 87.3 11.9C87.4 12.1 87.4 12.3 87.4 12.5C87.4 13.1 87.2 13.5 86.9 13.8C86.3 14.1 85.7 14.3 85 14.3Z"/>
            <path d="M91.2 14.1999C91.1 14.1999 91.1 14.1999 91 14.0999L90.9 13.9999V5.99993C90.9 5.89993 91 5.79993 91.1 5.79993H91.9C92 5.79993 92.1 5.89993 92.1 5.99993V10.2999C92.1 10.3999 92.1 10.3999 92.2 10.3999C92.3 10.3999 92.4 10.3999 92.5 10.2999L94.3 8.29993C94.4 8.19993 94.5 8.09993 94.6 8.09993H95.3C95.4 8.09993 95.4 8.09993 95.4 8.09993V8.19993C95.4 8.29993 95.4 8.29993 95.3 8.49993L93.4 10.5999C93.3 10.6999 93.3 10.6999 93.3 10.7999C93.3 10.7999 93.3 10.8999 93.4 10.8999L95.5 13.6999C95.6 13.7999 95.6 13.7999 95.6 13.8999V13.9999H95.5H94.7C94.6 13.9999 94.5 13.8999 94.4 13.7999L92.5 11.1999C92.5 11.1999 92.5 11.1999 92.4 11.0999C92.4 11.0999 92.3 11.0999 92.2 11.0999C92.1 11.0999 92.1 11.0999 92.1 11.0999V11.1999V13.9999C92.1 13.9999 92.1 14.0999 92 14.0999L91.9 14.1999H91.2Z"/>
            <path d="M102 14.3C101 14.3 100.2 14 99.6 13.5C99.1 13 98.8 12.2 98.8 11.2C98.8 10.8 98.9 10.3 99 9.99998C99.1 9.59998 99.3 9.29998 99.5 8.99998C99.7 8.69998 100 8.49998 100.4 8.29998C100.8 8.09998 101.2 8.09998 101.6 8.09998C102.4 8.09998 103.1 8.39997 103.5 8.89997C104 9.39997 104.2 10.1 104.2 11.1C104.2 11.2 104.2 11.3 104.2 11.3C104.2 11.3 104.1 11.4 104 11.4H100.2H100.1C100.1 11.4 100 11.5 100 11.6C100 12 100.1 12.3 100.2 12.5C100.3 12.8 100.5 12.9 100.7 13.1C100.9 13.2 101.1 13.3 101.4 13.4C101.6 13.5 101.9 13.5 102.1 13.5C102.3 13.5 102.6 13.5 102.8 13.4C103 13.4 103.2 13.3 103.5 13.2C103.7 13.1 103.8 13.1 103.9 13.1C104 13.1 104 13.2 104 13.3V13.7V13.8C104 13.9 103.9 13.9 103.8 14C103.6 14.1 103.4 14.2 103.1 14.2C102.6 14.2 102.3 14.3 102 14.3ZM100.2 10.5H103C103.1 10.5 103.1 10.5 103.1 10.5V10.4C103.1 10.2 103 9.89998 102.9 9.69998C102.8 9.39998 102.6 9.19998 102.4 9.09998C102.2 8.99998 101.9 8.89997 101.6 8.89997C101.3 8.89997 101 8.99998 100.8 9.09998C100.6 9.29998 100.4 9.49997 100.3 9.69998C100.2 9.89998 100.1 10.2 100.1 10.4C100.1 10.5 100.1 10.5 100.1 10.5C100.1 10.5 100.1 10.5 100.2 10.5Z"/>
            <path d="M113.6 14.2C113.5 14.2 113.4 14.1 113.4 14V6.39995C113.4 6.29995 113.4 6.29995 113.4 6.29995L113.5 6.19995H114.3C114.4 6.19995 114.5 6.29995 114.5 6.39995V9.49995C114.5 9.59995 114.5 9.59995 114.6 9.59995C114.7 9.59995 114.7 9.59995 114.8 9.49995L117.5 6.39995C117.6 6.29995 117.6 6.29995 117.7 6.19995C117.7 6.19995 117.8 6.19995 117.9 6.19995H118.8C118.9 6.19995 118.9 6.19995 118.9 6.29995C118.9 6.29995 118.9 6.29995 118.9 6.39995C118.9 6.39995 118.8 6.49995 118.7 6.59995L116 9.79995C116 9.89995 115.9 9.89995 115.9 9.89995C115.9 9.89995 115.9 9.99995 116 9.99995L118.8 13.7C118.9 13.8 118.9 13.9 118.9 14C118.9 14.1 118.9 14.1 118.8 14.1H117.9C117.8 14.1 117.7 14.1 117.7 14L115.1 10.5C115.1 10.4 115 10.4 114.9 10.4H114.8L114.7 10.5V14C114.7 14.1 114.6 14.2 114.5 14.2H113.6Z"/>
            <path d="M123.6 14.3C123.5 14.3 123.4 14.3 123.4 14.2C123.3 14.2 123.3 14.1 123.2 13.9L121.4 8.49995C121.4 8.39995 121.4 8.29995 121.4 8.29995V8.19995H121.5H122.3C122.4 8.19995 122.5 8.19995 122.5 8.29995L124 13V13.1C124 13.1 124 13.2 124.1 13.2C124.1 13.2 124.2 13.1 124.2 13L125.7 8.29995C125.7 8.19995 125.8 8.19995 125.9 8.19995H126.7H126.8V8.29995C126.8 8.29995 126.8 8.39995 126.7 8.49995L124.8 13.9C124.7 14.1 124.7 14.2 124.6 14.2C124.5 14.2 124.5 14.2 124.4 14.2H123.6V14.3Z"/>
            <path d="M130.9 7.09995C130.4 7.09995 130.2 6.89995 130.2 6.39995C130.2 5.99995 130.4 5.69995 130.9 5.69995C131.4 5.69995 131.6 5.89995 131.6 6.39995C131.6 6.59995 131.5 6.79995 131.4 6.89995C131.4 6.99995 131.2 7.09995 130.9 7.09995ZM130.6 14.2C130.5 14.2 130.5 14.2 130.4 14.1C130.4 14.1 130.3 14 130.3 13.9V8.39995C130.3 8.29995 130.4 8.19995 130.5 8.19995H131.2C131.3 8.19995 131.4 8.29995 131.4 8.39995V14C131.4 14.1 131.4 14.1 131.3 14.2C131.3 14.2 131.2 14.3 131.1 14.3H130.6V14.2Z"/>
            <path d="M136 14.2C135.9 14.2 135.9 14.2 135.8 14.1C135.8 14.1 135.7 14 135.7 13.9V8.39997C135.7 8.29997 135.8 8.19998 135.9 8.19998H136.7C136.8 8.19998 136.9 8.29997 136.9 8.39997C136.9 8.49997 136.9 8.49998 137 8.49998C137 8.49998 137 8.49998 137.1 8.49998C137.1 8.49998 137.3 8.39998 137.6 8.29998C137.9 8.19998 138.1 8.09998 138.3 8.09998C138.5 8.09998 138.7 8.09998 138.8 8.09998C139 8.09998 139.2 8.09998 139.4 8.09998C139.6 8.09998 139.8 8.19998 140 8.29998C140.2 8.39998 140.3 8.49998 140.4 8.69998C140.5 8.89998 140.6 8.99998 140.7 9.19998C140.8 9.39998 140.8 9.59997 140.8 9.89997C140.8 10.1 140.8 10.3 140.8 10.5V14C140.8 14.1 140.8 14.1 140.7 14.2C140.7 14.2 140.6 14.3 140.5 14.3H139.8C139.7 14.3 139.7 14.3 139.6 14.2C139.6 14.2 139.5 14.1 139.5 14V10.6C139.5 10.1 139.5 9.79998 139.4 9.59998C139.3 9.39998 139.2 9.19998 139 9.09998C138.8 8.99998 138.6 8.89997 138.2 8.89997C137.8 8.89997 137.4 8.99998 137.2 9.09998C137 9.19998 136.8 9.39998 136.8 9.59998V14C136.8 14.1 136.7 14.2 136.6 14.2H136Z"/>
            <path d="M145.3 14.2C145.2 14.2 145.2 14.2 145.1 14.1C145.1 14.1 145 14 145 13.9V8.39997C145 8.29997 145.1 8.19998 145.2 8.19998H146C146.1 8.19998 146.2 8.29997 146.2 8.39997C146.2 8.49997 146.2 8.49998 146.3 8.49998C146.3 8.49998 146.3 8.49998 146.4 8.49998C146.4 8.49998 146.6 8.39998 146.9 8.29998C147.2 8.19998 147.4 8.09998 147.6 8.09998C147.8 8.09998 148 8.09998 148.1 8.09998C148.3 8.09998 148.5 8.09998 148.7 8.09998C148.9 8.09998 149.1 8.19998 149.3 8.29998C149.5 8.39998 149.6 8.49998 149.7 8.69998C149.8 8.89998 149.9 8.99998 150 9.19998C150.1 9.39998 150.1 9.59997 150.1 9.89997C150.1 10.1 150.1 10.3 150.1 10.5V14C150.1 14.1 150.1 14.1 150 14.2C150 14.2 149.9 14.3 149.8 14.3H149.1C149 14.3 149 14.3 148.9 14.2C148.9 14.2 148.8 14.1 148.8 14V10.6C148.8 10.1 148.8 9.79998 148.7 9.59998C148.6 9.39998 148.5 9.19998 148.3 9.09998C148.1 8.99998 147.9 8.89997 147.5 8.89997C147.1 8.89997 146.7 8.99998 146.5 9.09998C146.3 9.19998 146.1 9.39998 146.1 9.59998V14C146.1 14.1 146 14.2 145.9 14.2H145.3Z"/>
            <path d="M157.1 14.3C156.1 14.3 155.3 14 154.7 13.5C154.2 13 153.9 12.2 153.9 11.2C153.9 10.8 154 10.3 154.1 9.99998C154.2 9.59998 154.4 9.29998 154.6 8.99998C154.8 8.69998 155.1 8.49998 155.5 8.29998C155.9 8.09998 156.3 8.09998 156.7 8.09998C157.5 8.09998 158.2 8.39997 158.6 8.89997C159.1 9.39997 159.3 10.1 159.3 11.1C159.3 11.2 159.3 11.3 159.3 11.3C159.3 11.3 159.2 11.4 159.1 11.4H155.3H155.2C155.2 11.4 155.1 11.5 155.1 11.6C155.1 12 155.2 12.3 155.3 12.5C155.4 12.8 155.6 12.9 155.8 13.1C156 13.2 156.2 13.3 156.5 13.4C156.7 13.5 157 13.5 157.2 13.5C157.4 13.5 157.7 13.5 157.9 13.4C158.1 13.4 158.3 13.3 158.6 13.2C158.8 13.1 158.9 13.1 159 13.1C159.1 13.1 159.1 13.2 159.1 13.3V13.7V13.8C159.1 13.9 159 13.9 158.9 14C158.7 14.1 158.5 14.2 158.2 14.2C157.8 14.2 157.4 14.3 157.1 14.3ZM155.3 10.5H158.1C158.2 10.5 158.2 10.5 158.2 10.5V10.4C158.2 10.2 158.1 9.89998 158 9.69998C157.9 9.39998 157.7 9.19998 157.5 9.09998C157.3 8.99998 157 8.89997 156.7 8.89997C156.4 8.89997 156.1 8.99998 155.9 9.09998C155.7 9.29998 155.5 9.49997 155.4 9.69998C155.3 9.89998 155.2 10.2 155.2 10.4C155.2 10.5 155.2 10.5 155.2 10.5C155.2 10.5 155.2 10.5 155.3 10.5Z"/>
            <path d="M163.3 14.2C163.2 14.2 163.2 14.2 163.2 14.1C163.2 14 163.1 14 163.1 14V8.39997C163.1 8.29997 163.2 8.19998 163.3 8.19998H164.1H164.2C164.2 8.19998 164.3 8.29997 164.3 8.39997C164.3 8.49997 164.3 8.49998 164.3 8.49998H164.4C164.4 8.49998 164.4 8.49998 164.5 8.49998C164.5 8.49998 164.7 8.39998 165 8.29998C165.3 8.09998 165.6 8.09998 165.9 8.09998C166 8.09998 166.2 8.09998 166.2 8.09998C166.3 8.09998 166.3 8.19998 166.3 8.29998V8.89997V8.99998H166.2C166.2 8.99998 166.1 8.99998 165.9 8.99998C165.8 8.99998 165.6 8.99998 165.5 8.99998C165.2 8.99998 165 8.99998 164.8 9.09998C164.6 9.19998 164.5 9.29998 164.4 9.49998C164.3 9.69998 164.3 9.79998 164.3 10.1V14C164.3 14.1 164.2 14.2 164.1 14.2H163.3Z"/>
            <path d="M171 14.3C170.8 14.3 170.5 14.3 170.3 14.2C170 14.2 169.9 14.1 169.7 14.1C169.6 14.1 169.5 14 169.4 14C169.3 13.9 169.3 13.9 169.3 13.8V13.3C169.3 13.2 169.4 13.1 169.5 13.1C169.5 13.1 169.7 13.1 169.9 13.2C170.1 13.3 170.3 13.4 170.5 13.4C170.7 13.4 170.9 13.5 171.1 13.5C171.5 13.5 171.8 13.4 171.9 13.3C172.1 13.2 172.2 13 172.2 12.7C172.2 12.5 172.2 12.4 172.1 12.3C172 12.2 171.8 12 171.4 11.7L170.6 11.2C170.2 11 170 10.8 169.8 10.5C169.6 10.3 169.5 10 169.5 9.6C169.5 9.1 169.7 8.7 170 8.4C170.3 8.1 170.8 8 171.5 8C172 8 172.4 8.1 172.7 8.2C172.8 8.2 172.9 8.3 173 8.3C173.1 8.3 173.1 8.4 173.1 8.6V9C173.1 9.1 173.1 9.2 173 9.2C173 9.2 172.9 9.2 172.7 9.1C172.5 9 172.3 8.9 172.2 8.9C172 8.9 171.8 8.8 171.7 8.8C171.4 8.8 171.2 8.9 171 9C170.8 9.1 170.8 9.3 170.8 9.5C170.8 9.7 170.9 9.8 171 10C171.1 10.2 171.3 10.3 171.6 10.5L172.4 11C172.6 11.1 172.8 11.2 173 11.4C173.2 11.6 173.3 11.7 173.4 11.9C173.5 12.1 173.5 12.3 173.5 12.5C173.5 13.1 173.3 13.5 173 13.8C172.2 14.1 171.7 14.3 171 14.3Z"/>
        </g>
    </g>
    <g class="logo-full__icon">
        <path d="M46 18.9C45.1 15.5 41.8 13.7 39.8 13.6C37.9 13.6 35 14.3 32.3 16.7C31.2 17.7 28 20.9 27.9 21.1C27.1 21.9 26.4 21.9 26.1 21.6C25.8 21.3 25.8 20.5 26.6 19.7C26.8 19.5 30.9 15.5 32.1 14.1C34.4 11.4 35.2 8.50002 35.1 6.60002C35.1 4.60002 33.2 1.30002 29.9 0.300023C26.9 -0.599977 24.4 1.00002 23.1 1.80002C22 1.00002 19.4 -0.599977 16.4 0.300023C13.1 1.20002 11.2 4.50002 11.2 6.60002C11.2 8.50002 11.9 11.5 14.2 14.1C15.4 15.5 19.5 19.6 19.7 19.8C20.5 20.6 20.5 21.3 20.2 21.7C19.9 22 19.2 22 18.4 21.2C18.3 21.1 15.1 17.9 13.9 16.8C11.3 14.5 8.30005 13.7 6.40005 13.7C4.40005 13.7 1.10005 15.6 0.200047 19C-0.699953 22.1 0.900047 24.6 1.70005 25.8C0.900047 27 -0.699953 29.5 0.200047 32.6C1.10005 36 4.40005 37.8 6.40005 37.9C8.30005 38 11.2 37.2 13.9 34.8C15.8 33.1 19.3 29.4 21.1 27.5C21.7 31.9 20.8 41.5 20.9 42.4C21 43.3 21.1 44.1 21.7 44.7C22.3 45.3 25.1 46.2 25.7 46.4C26.2 46.5 27.2 46.4 26.5 45.4C24.7 43 24 33.6 25.1 27.7C26.8 29.5 30.4 33.3 32.4 35C35 37.3 37.8 38.1 39.7 38.1C39.8 38.1 39.8 38.1 39.9 38.1C41.9 38.1 45.2 36.2 46.1 32.8C47 29.7 45.4 27.2 44.6 26C45.3 24.5 46.9 21.9 46 18.9ZM44.7 32.2C43.9 35.1 41 36.4 39.8 36.4C38.2 36.4 35.6 35.7 33.3 33.7C30.8 31.5 25.5 25.8 25.3 25.6L24.7 25C24.3 27.3 22 27.3 21.6 25L21 25.5C20.1 26.5 15.3 31.6 13 33.6C10.7 35.7 8.10005 36.4 6.50005 36.3C5.20005 36.3 2.40005 35 1.60005 32.1C0.800047 29.4 2.40005 27.1 3.10005 26.1L3.50005 25.6L3.10005 25.1C2.40005 24.1 0.800047 21.9 1.60005 19.1C2.40005 16.3 5.20005 15 6.50005 15C8.10005 15 10.7 15.7 13 17.7C14.2 18.7 17.4 22 17.4 22C18.9 23.5 20.4 23.3 21.1 22.5C21.9 21.7 22 20.1 20.6 18.7C20.6 18.7 16.4 14.5 15.2 13.1C13.2 10.7 12.5 8.20002 12.5 6.50002C12.5 5.20002 13.8 2.30002 16.7 1.50002C19.5 0.700023 21.6 2.30002 22.6 3.00002L23.1 3.40002L23.6 3.00002C24.5 2.30002 26.7 0.700023 29.5 1.50002C32.4 2.30002 33.7 5.20002 33.7 6.50002C33.7 8.10002 33.1 10.7 31 13.1C29.8 14.5 25.6 18.6 25.6 18.7C24.2 20.1 24.3 21.7 25.1 22.5C25.9 23.3 27.4 23.4 28.8 22C28.8 22 32.1 18.7 33.2 17.7C35.5 15.6 38.1 15 39.7 15C41 15 43.8 16.3 44.6 19.2C45.4 21.9 43.8 24.2 43.1 25.2L42.7 25.7L43.1 26.2C43.8 27.2 45.4 29.4 44.7 32.2Z"
              fill="black"/>
        <path d="M33.2 33.7C35.5 35.8 38.1 36.4 39.7 36.4C41 36.4 43.8 35.1 44.6 32.2C45.4 29.5 43.8 27.2 43.1 26.2L42.7 25.7L43.1 25.2C43.8 24.2 45.4 22 44.6 19.2C43.9 16.3 41 15 39.7 15C38.1 15 35.5 15.7 33.2 17.7C32.1 18.7 28.9 22 28.8 22C27.3 23.5 25.8 23.3 25.1 22.5C24.3 21.7 24.2 20.1 25.6 18.7C25.7 18.7 29.8 14.5 31 13.1C33 10.7 33.7 8.19999 33.7 6.49999C33.7 5.19999 32.4 2.29999 29.5 1.49999C26.8 0.699986 24.6 2.29999 23.6 2.99999L23.1 3.39999L22.6 2.99999C21.7 2.29999 19.5 0.699986 16.7 1.49999C13.8 2.29999 12.5 5.19999 12.5 6.49999C12.5 8.09999 13.1 10.7 15.2 13.1C16.4 14.5 20.6 18.6 20.6 18.7C22 20.1 21.9 21.7 21.1 22.5C20.3 23.3 18.8 23.4 17.4 22C17.4 22 14.2 18.7 13 17.7C10.7 15.6 8.09996 14.9 6.49996 15C5.19996 15 2.39996 16.3 1.59996 19.2C0.799962 21.9 2.39996 24.2 3.09996 25.2L3.49996 25.7L3.09996 26.2C2.39996 27.2 0.799962 29.4 1.59996 32.2C2.39996 35.1 5.19996 36.4 6.49996 36.4C8.09996 36.4 10.7 35.7 13 33.7C15.3 31.7 20.1 26.6 21 25.6L21.6 25C22 27.3 24.3 27.3 24.7 25L25.3 25.6C25.4 25.8 30.7 31.5 33.2 33.7Z"/>
        <path d="M7.50005 28.5C7.40005 28.5 7.30005 28.4 7.30005 28.3V21.6C7.30005 21.5 7.40005 21.4 7.50005 21.4H8.30005C8.40005 21.4 8.50005 21.5 8.60005 21.6L11.9 26.5V21.7C11.9 21.6 12 21.5 12.1 21.5H13C13.1 21.5 13.2 21.6 13.2 21.7V28.3C13.2 28.4 13.2 28.4 13.1 28.5C13 28.6 13 28.6 12.9 28.6H12.1C12 28.6 11.9 28.6 11.8 28.6C11.7 28.6 11.6 28.4 11.5 28.2L8.50005 24.1V28.5C8.50005 28.6 8.40005 28.7 8.30005 28.7H7.50005V28.5Z"
              fill="black"/>
        <path d="M35.5999 28.7C35.2999 28.7 35 28.7 34.7 28.6C34.4 28.6 34.2 28.4999 34 28.4C33.8 28.3 33.8 28.3 33.7 28.2C33.7 28.1 33.7 28.1 33.7 28V27.2C33.7 27.1 33.8 27 33.9 27C33.9 27 34.0999 27.1 34.2999 27.2C34.4999 27.3 34.7 27.4 34.9 27.5C35.1 27.6 35.2999 27.6 35.5999 27.6C35.7999 27.6 36 27.6 36.2 27.5C36.4 27.4 36.4999 27.4 36.5999 27.2C36.6999 27.1 36.7999 26.9 36.7999 26.7C36.7999 26.5 36.6999 26.4 36.5999 26.2C36.4999 26.1 36.2999 25.8999 36.0999 25.7999L34.9 25.1C34.5 24.9 34.1999 24.5999 34.0999 24.2999C33.8999 23.9999 33.7999 23.6 33.7999 23.2C33.7999 22.6 34 22.1 34.4 21.7C34.8 21.4 35.4 21.2 36.2 21.2C36.4 21.2 36.5999 21.2 36.7999 21.2C36.9999 21.2 37.2 21.2999 37.4 21.2999C37.6 21.2999 37.6999 21.4 37.7999 21.4C37.8999 21.4 37.9 21.5 38 21.5C38 21.6 38.0999 21.6 38.0999 21.7V22.4C38.0999 22.5 38 22.6 37.9 22.6C37.8 22.6 37.7 22.5 37.5 22.4C37.3 22.3 37.1 22.2 36.9 22.2C36.7 22.2 36.4999 22.1 36.2999 22.1C36.0999 22.1 35.9 22.1 35.7 22.2C35.5 22.3 35.4 22.4 35.4 22.5C35.4 22.6 35.2999 22.6999 35.2999 22.9C35.2999 23.1 35.4 23.1999 35.5 23.4C35.6 23.4999 35.8 23.6999 36 23.7999L36.9 24.2999C37.4 24.5999 37.7 24.9 38 25.2C38.2 25.5 38.2999 25.9 38.2999 26.4C38.1999 27.9999 37.2999 28.7 35.5999 28.7Z"
              fill="black"/>
        <path d="M20.6 13.3C20.5 13.3 20.4 13.2 20.4 13.1V6.39995C20.4 6.29995 20.4 6.29995 20.4 6.29995L20.5 6.19995H21.7C21.8 6.19995 21.8 6.19995 21.8 6.29995C21.8 6.39995 22 6.39995 22 6.39995V8.99995C22 9.09995 22 9.09995 22.1 9.09995C22.2 9.09995 22.2 9.09995 22.3 8.99995L24.3 6.39995L24.4 6.29995C24.4 6.29995 24.5 6.19995 24.6 6.19995H25.9C26 6.19995 26 6.19995 26 6.29995C26 6.39995 26 6.39995 25.9 6.49995L23.7 9.29995L23.6 9.39995C23.6 9.39995 23.6 9.49995 23.7 9.49995L25.9 12.8C26 12.9 26 13 26 13C26 13.1 26 13.1 25.9 13.1H24.5C24.4 13.1 24.4 13.1 24.4 13.1L24.3 13L22.4 10.1C22.4 10.1 22.4 10.1 22.4 9.99995C22.4 9.89995 22.3 9.99995 22.3 9.99995C22.2 9.99995 22.2 9.99995 22.2 10.1V12.9C22.2 13 22.1 13.1 22 13.1H20.6V13.3Z"
              fill="black"/>
    </g>
</svg>