<?xml version="1.0" encoding="UTF-8"?>
<svg id="Layer_1" data-name="Layer 1" xmlns="http://www.w3.org/2000/svg" version="1.1" viewBox="0 0 469.3 58">
  <defs>
    <style>
      .cls-1 {
        fill: #003087;
      }

      .cls-1, .cls-2 {
        stroke-width: 0px;
      }

      .cls-2 {
        fill: #6cace4;
      }
    </style>
  </defs>
  <path class="cls-1" d="M96.4,8.7c-2.8-1.2-5.1-1.9-7-1.9s-4.1.9-4.1,2.6.7,1.9,2.6,2.8c4.2,2.3,6.9,3.9,8.3,5.3,1.2,1.2,1.9,3,1.9,4.9,0,4.9-3.5,7.7-9.6,7.7s-1.6-.1-2.4-.1c-1.9-.3-2.8-.5-5.7-1.9-.4-.1-.9-.4-1.8-.8l2.2-4.7c2,1.1,2.8,1.5,3.9,1.9,1.4.5,2.8.8,3.9.8,2.4,0,3.9-1.1,3.9-2.7s-.7-1.9-2.4-3l-4.2-2.4c-4.9-2.8-6.4-4.6-6.4-7.6s.4-2.7,1.1-3.8c.4-.7,1.2-1.4,2-2,2-1.4,3.7-1.8,6.9-1.8s3.4.3,5.1.7c1.4.4,2,.7,3.9,1.6l-2.2,4.5Z"/>
  <path class="cls-1" d="M115.3,6.6v22.9h-5.3V6.6h-8.1V2.2h21.7v4.5h-8.3Z"/>
  <path class="cls-1" d="M127.5,30.1c-1.8,0-3.3-1.5-3.3-3.3s1.5-3.3,3.3-3.3,3.3,1.5,3.3,3.3-1.5,3.3-3.3,3.3Z"/>
  <path class="cls-1" d="M158,6.2c-5.1,0-8.9,4.2-8.9,9.6s3.8,9.6,8.9,9.6,8.9-4.1,8.9-9.6-3.9-9.6-8.9-9.6ZM158,30.1c-8.5,0-14.5-5.8-14.5-14.2s5.8-14.2,14.5-14.2,14.5,5.7,14.5,14.2-6.1,14.2-14.5,14.2Z"/>
  <path class="cls-1" d="M177.1,29.5V2.2h5.1v23h11.2v4.3h-16.4Z"/>
  <path class="cls-1" d="M210.3,8.5l-3.1,9.9h6.4l-3.3-9.9ZM217.1,29.5l-2.2-6.8h-9.2l-2.3,6.8h-5.4l9.9-27.4h4.7l9.9,27.4h-5.4Z"/>
  <path class="cls-1" d="M236.2,30.4h-3.7l-10.2-28.2h5.7l6.2,18.4.3.8v.5c.1,0,.1-.3.1-.3,0-.4,0-.5.1-.7v-.3c.1,0,6.1-18.4,6.1-18.4h5.4l-10.2,28.1Z"/>
  <path class="cls-1" d="M265.7,8.7c-2.8-1.2-5.3-1.9-7-1.9s-4.1.9-4.1,2.6.7,1.9,2.6,2.8c4.2,2.3,6.9,3.9,8.3,5.3,1.2,1.2,1.9,3,1.9,4.9,0,4.9-3.5,7.7-9.6,7.7s-1.6-.1-2.4-.1c-1.9-.3-2.8-.5-5.7-1.9-.4-.1-.9-.4-1.8-.8l2.2-4.7c2,1.1,2.8,1.5,3.9,1.9,1.4.5,2.8.8,3.9.8,2.4,0,3.9-1.1,3.9-2.7s-.7-1.9-2.4-3l-4.2-2.4c-4.9-2.8-6.4-4.6-6.4-7.6s.4-2.7,1.1-3.8c.4-.7,1.2-1.4,2-2,2-1.4,3.7-1.8,6.9-1.8s3.4.3,5.1.7c1.4.4,2,.7,3.9,1.6l-2.2,4.5Z"/>
  <path class="cls-1" d="M304.1,29.5v-11.7h-14.1v11.7h-5.3V2.2h5.3v11h14.1V2.2h5.1v27.4h-5.1Z"/>
  <path class="cls-1" d="M327.9,6.2c-5.1,0-8.9,4.2-8.9,9.6s3.8,9.6,8.9,9.6,8.9-4.1,8.9-9.6c.1-5.4-3.8-9.6-8.9-9.6ZM327.9,30.1c-8.5,0-14.5-5.8-14.5-14.2s5.8-14.2,14.5-14.2,14.5,5.7,14.5,14.2c.1,8.4-6,14.2-14.5,14.2Z"/>
  <path class="cls-1" d="M362.6,8.7c-2.8-1.2-5.3-1.9-7-1.9s-4.1.9-4.1,2.6.7,1.9,2.6,2.8c4.2,2.3,6.9,3.9,8.3,5.3,1.2,1.2,1.9,3,1.9,4.9,0,4.9-3.5,7.7-9.6,7.7s-1.6-.1-2.4-.1c-1.9-.3-2.8-.5-5.7-1.9-.4-.1-.9-.4-1.8-.8l2.2-4.7c2,1.1,2.8,1.5,3.9,1.9,1.4.5,2.8.8,3.9.8,2.4,0,3.9-1.1,3.9-2.7s-.7-1.9-2.4-3l-4.2-2.4c-4.9-2.8-6.4-4.6-6.4-7.6s.4-2.7,1.1-3.8c.4-.7,1.2-1.4,2-2,2-1.4,3.7-1.8,6.9-1.8s3.4.3,5.1.7c1.4.4,2,.7,3.9,1.6l-2.2,4.5Z"/>
  <path class="cls-1" d="M377.5,6.6h-3.7v9.1h2.6c4.1,0,5.8-1.5,5.8-4.9-.1-2.8-1.5-4.2-4.7-4.2ZM384.5,18c-1.9,1.6-4.3,2.3-8.1,2.3s-1.6,0-2.6-.1v9.4h-5.3V2.2h9.4c3.5,0,5.6.7,7.3,2.3,1.5,1.5,2.3,3.7,2.3,6.1.1,3.1-.9,5.7-3,7.5Z"/>
  <path class="cls-1" d="M397.1,2.2h-5.3v27.4h5.3V2.2Z"/>
  <path class="cls-1" d="M415.4,6.6v22.9h-5.1V6.6h-8.3V2.2h21.7v4.5h-8.3Z"/>
  <path class="cls-1" d="M435.9,8.5l-3.1,9.9h6.4l-3.3-9.9ZM442.7,29.5l-2.2-6.8h-9.2l-2.3,6.8h-5.4l9.9-27.4h4.7l9.9,27.4h-5.4Z"/>
  <path class="cls-1" d="M452.8,29.5V2.2h5.3v23h11.2v4.3h-16.5Z"/>
  <path class="cls-1" d="M87.8,56.8c-.8.5-2.2.8-3.3.8s-2.4-.4-3.3-.8c-1.2-.7-1.6-1.9-1.6-4.2v-6.8h1.8v7c0,2,1.1,3.1,3.1,3.1s3.1-1.1,3.1-3.1v-7.2h1.9v6.8c0,2.4-.5,3.5-1.8,4.3Z"/>
  <path class="cls-1" d="M103.7,57.5l-6.5-8.3c-.4-.5-.5-.8-.5-1.1v9.2h-1.6v-11.5h1.9l6.5,8.3c.3.3.4.7.4,1.1v-9.2h1.6v11.7h-1.8"/>
  <path class="cls-1" d="M112.9,45.8h-1.9v11.5h1.9v-11.5Z"/>
  <path class="cls-1" d="M122.1,57.6h-.9l-5-11.8h2l3.5,8.3c.1.1.1.3.1.5q0-.3.1-.5l3.3-8.3h2l-5.2,11.8Z"/>
  <path class="cls-1" d="M130.5,57.3v-11.5h7.2v1.5h-5.3v3.3h4.3v1.6h-4.3v3.5h5.4v1.6h-7.3Z"/>
  <path class="cls-1" d="M147.6,47.6c-.4-.3-.5-.3-1.9-.3h-1.8v3.8h1.8c1.2,0,1.4,0,1.9-.5.4-.4.7-.8.7-1.5s-.3-1.1-.7-1.5ZM148.7,57.3l-3-4.7h-1.6v4.7h-1.9v-11.5h3.9c2.7,0,4.3,1.2,4.3,3.3s-1.1,3.1-2.7,3.4l3.3,4.9h-2.3Z"/>
  <path class="cls-1" d="M160.7,48.1c-.5-.4-.8-.5-1.5-.7-.5-.1-1.1-.3-1.6-.3-1.5,0-2.3.5-2.3,1.5s0,.4.1.5c.3.5.7.7,3,1.8,2.2,1.1,2.8,1.9,2.8,3.3,0,2-1.6,3.3-4.2,3.3s-1.6-.1-2.3-.4c-.5-.1-.8-.4-1.6-.8l.8-1.6c.7.5,1.1.7,1.5.9.5.3,1.2.4,1.9.4,1.4,0,2.2-.5,2.2-1.5s-.4-1.2-1.4-1.8l-2-.9c-1.8-.8-2.6-1.8-2.6-3,0-1.9,1.6-3.1,4.2-3.1s1.5.1,2.2.3c.5.1.8.3,1.5.7l-.7,1.5Z"/>
  <path class="cls-1" d="M167.5,45.8h-1.9v11.5h1.9v-11.5Z"/>
  <path class="cls-1" d="M176.6,47.3v10h-1.8v-10h-4.1v-1.5h9.9v1.5h-4.1Z"/>
  <path class="cls-1" d="M183.9,57.3v-11.5h7.2v1.5h-5.3v3.3h4.3v1.6h-4.3v3.5h5.4v1.6h-7.3Z"/>
  <path class="cls-1" d="M198.9,47.3v10h-1.8v-10h-4.2v-1.5h10v1.5h-4.1Z"/>
  <path class="cls-1" d="M212.5,48.1c-.5-.4-.8-.5-1.5-.7-.5-.1-1.1-.3-1.6-.3-1.5,0-2.3.5-2.3,1.5s0,.4.1.5c.3.5.7.7,3,1.8,2.2,1.1,2.8,1.9,2.8,3.3,0,2-1.6,3.3-4.2,3.3s-1.6-.1-2.3-.4c-.5-.1-.8-.4-1.6-.8l.8-1.6c.7.5,1.1.7,1.5.9.5.3,1.2.4,1.9.4,1.4,0,2.2-.5,2.2-1.5s-.4-1.2-1.4-1.8l-2-.9c-1.8-.8-2.6-1.8-2.6-3,0-1.9,1.6-3.1,4.2-3.1s1.5.1,2.2.3c.5.1.8.3,1.5.7l-.7,1.5Z"/>
  <path class="cls-1" d="M223.6,48.1c-.5-.4-.8-.5-1.5-.7-.5-.1-1.1-.3-1.6-.3-1.5,0-2.3.5-2.3,1.5s0,.4.1.5c.3.5.7.7,3,1.8,2.2,1.1,2.8,1.9,2.8,3.3,0,2-1.6,3.3-4.2,3.3s-1.6-.1-2.3-.4c-.5-.1-.8-.4-1.6-.8l.8-1.6c.7.5,1.1.7,1.5.9.5.3,1.2.4,1.9.4,1.4,0,2.2-.5,2.2-1.5s-.4-1.2-1.4-1.8l-2-.9c-1.8-.8-2.6-1.8-2.6-3,0-1.9,1.6-3.1,4.2-3.1s1.5.1,2.2.3c.5.1.8.3,1.5.7l-.7,1.5Z"/>
  <path class="cls-1" d="M232.3,52.2v5.1h-1.8v-5.1l-4.1-6.4h2l3.1,4.6,3-4.6h2.2l-4.5,6.4Z"/>
  <path class="cls-1" d="M247,57.3l-4.9-5.8,4.7-5.8h2.4l-4.9,5.8,5.1,5.8h-2.6ZM240.1,45.8h1.9v11.5h-1.9v-11.5Z"/>
  <path class="cls-1" d="M253,57.3v-11.5h7.2v1.5h-5.3v3.3h4.3v1.6h-4.3v3.5h5.4v1.6h-7.3Z"/>
  <path class="cls-1" d="M273.7,57.3v-5.1h-7.3v5.1h-1.9v-11.5h1.9v4.7h7.3v-4.7h1.8v11.5h-1.8Z"/>
  <path class="cls-1" d="M289.1,56.8c-.8.5-2.2.8-3.3.8s-2.4-.4-3.3-.8c-1.2-.7-1.6-1.9-1.6-4.2v-6.8h1.8v7c0,2,1.1,3.1,3.1,3.1s3.1-1.1,3.1-3.1v-7.2h1.8v6.8c0,2.4-.4,3.5-1.6,4.3Z"/>
  <path class="cls-1" d="M302.2,48.1c-.5-.4-.8-.5-1.5-.7-.5-.1-1.1-.3-1.6-.3-1.5,0-2.3.5-2.3,1.5s0,.4.1.5c.3.5.7.7,3,1.8,2.2,1.1,2.8,1.9,2.8,3.3,0,2-1.6,3.3-4.2,3.3s-1.6-.1-2.3-.4c-.5-.1-.8-.4-1.6-.8l.8-1.6c.7.5,1.1.7,1.5.9.5.3,1.2.4,1.9.4,1.4,0,2.2-.5,2.2-1.5s-.4-1.2-1.4-1.8l-2-.9c-1.8-.8-2.6-1.8-2.6-3,0-1.9,1.6-3.1,4.2-3.1s1.5.1,2.2.3c.5.1.8.3,1.5.7l-.7,1.5Z"/>
  <path class="cls-1" d="M307.2,57.3v-11.5h7v1.5h-5.3v3.3h4.3v1.6h-4.3v3.5h5.4v1.6h-7.2Z"/>
  <path class="cls-1" d="M322.1,47.3v10h-1.8v-10h-4.1v-1.5h10v1.5h-4.2Z"/>
  <path class="cls-1" d="M337.4,45.8h-1.9v11.5h1.9v-11.5Z"/>
  <path class="cls-1" d="M352.5,47.3v10h-1.8v-10h-4.1v-1.5h10v1.5h-4.2Z"/>
  <path class="cls-1" d="M365.3,47.6c-.4-.3-.5-.3-1.9-.3h-1.8v3.8h1.8c1.2,0,1.4,0,1.9-.5.4-.4.7-.8.7-1.5s-.3-1.1-.7-1.5ZM366.4,57.3l-3-4.7h-1.6v4.7h-1.9v-11.5h3.9c2.7,0,4.3,1.2,4.3,3.3s-1.1,3.1-2.7,3.4l3.3,4.9h-2.3Z"/>
  <path class="cls-1" d="M377.1,47c-2.6,0-4.5,1.9-4.5,4.5s1.9,4.5,4.5,4.5,4.5-1.9,4.5-4.5-1.9-4.5-4.5-4.5ZM377.1,57.5c-3.7,0-6.4-2.6-6.4-6s2.7-6,6.4-6,6.4,2.6,6.4,6c.1,3.5-2.6,6-6.4,6Z"/>
  <path class="cls-1" d="M396.7,57.5l-6.5-8.3c-.4-.5-.5-.8-.5-1.1v9.2h-1.6v-11.5h1.9l6.5,8.3c.3.3.4.7.4,1.1v-9.2h1.6v11.7h-1.8"/>
  <path class="cls-1" d="M411.2,48.1c-.7-.5-1.5-.8-3.1-.8h-2.3v8.5h2.2c1.6,0,2.4-.3,3.3-.8.9-.8,1.5-2.2,1.5-3.4s-.5-2.7-1.5-3.5ZM412.9,55.7c-1.1,1.1-2.6,1.6-4.7,1.6h-4.2v-11.5h4.2c2.2,0,3.7.5,4.7,1.6.9.9,1.6,2.7,1.6,4.2s-.5,3-1.6,4.1Z"/>
  <path class="cls-1" d="M427.7,57.3v-5.1h-7.2v5.1h-1.9v-11.5h1.9v4.7h7.2v-4.7h1.9v11.5h-1.9Z"/>
  <path class="cls-1" d="M435.1,57.3v-11.5h7.2v1.5h-5.3v3.3h4.3v1.6h-4.3v3.5h5.4v1.6h-7.3Z"/>
  <path class="cls-1" d="M448.6,45.8h-1.9v11.5h1.9v-11.5Z"/>
  <path class="cls-1" d="M465.1,57.3v-9.2c-.1.5-.3.8-.4,1.4l-3.5,7.9h-1.5l-3.1-7.3c-.3-.7-.4-.8-.4-1.5v8.9h-1.9v-11.5h2.3l3.8,8.5q.1.4.3.9t.3-.9l3.9-8.5h2.3v11.5h-2"/>
  <path class="cls-2" d="M36.2,7.2c0,3.9-3.3,7.2-7.2,7.2s-7.2-3.3-7.2-7.2S25.1,0,29,0s7.2,3.3,7.2,7.2Z"/>
  <path class="cls-1" d="M36.2,29c0,3.9-3.3,7.2-7.2,7.2s-7.2-3.3-7.2-7.2,3.3-7.2,7.2-7.2,7.2,3.1,7.2,7.2Z"/>
  <path class="cls-2" d="M14.4,29c0,3.9-3.3,7.2-7.2,7.2s-7.2-3.3-7.2-7.2,3.3-7.2,7.2-7.2,7.2,3.1,7.2,7.2Z"/>
  <path class="cls-2" d="M58,29c0,3.9-3.3,7.2-7.2,7.2s-7.2-3.3-7.2-7.2,3.3-7.2,7.2-7.2,7.2,3.1,7.2,7.2Z"/>
  <path class="cls-2" d="M36.2,50.8c0,3.9-3.3,7.2-7.2,7.2s-7.2-3.3-7.2-7.2,3.3-7.2,7.2-7.2,7.2,3.1,7.2,7.2Z"/>
</svg>