<?xml version="1.0" encoding="UTF-8" standalone="no"?>
<!-- Created with Inkscape (http://www.inkscape.org/) -->

<svg
   version="1.1"
   id="svg1"
   width="1652.8"
   height="1686.5601"
   viewBox="0 0 1652.8 1686.5601"
   sodipodi:docname="bufdir_logo_vertikal_rgb.eps"
   xmlns:inkscape="http://www.inkscape.org/namespaces/inkscape"
   xmlns:sodipodi="http://sodipodi.sourceforge.net/DTD/sodipodi-0.dtd"
   xmlns="http://www.w3.org/2000/svg"
   xmlns:svg="http://www.w3.org/2000/svg">
  <defs
     id="defs1" />
  <sodipodi:namedview
     id="namedview1"
     pagecolor="#ffffff"
     bordercolor="#000000"
     borderopacity="0.25"
     inkscape:showpageshadow="2"
     inkscape:pageopacity="0.0"
     inkscape:pagecheckerboard="0"
     inkscape:deskcolor="#d1d1d1">
    <inkscape:page
       x="0"
       y="0"
       inkscape:label="1"
       id="page1"
       width="1652.8"
       height="1686.5601"
       margin="0"
       bleed="0" />
  </sodipodi:namedview>
  <g
     id="g1"
     inkscape:groupmode="layer"
     inkscape:label="1">
    <g
       id="group-R5">
      <path
         id="path2"
         d="M 1939.31,1096.2 H 1319.88 V 559.301 h 615.68 c 183.94,0 300.3,97.601 300.3,266.601 0,161.399 -108.85,270.298 -296.55,270.298 z m -78.83,934.7 h -540.6 v -461.7 h 548.1 c 180.19,0 292.8,86.3 292.8,240.2 0,153.9 -112.61,221.5 -300.3,221.5 z M 1980.59,45 H 719.219 V 2545.2 H 1905.51 c 548.1,0 859.69,-244 859.69,-645.7 0,-225.2 -120.15,-424.2 -326.6,-533 270.28,-108.9 412.94,-326.6 412.94,-593.199 C 2851.54,334.102 2532.44,45 1980.59,45"
         style="fill:#333236;fill-opacity:1;fill-rule:nonzero;stroke:none"
         transform="matrix(0.13333333,0,0,-0.13333333,0,1686.56)" />
      <path
         id="path3"
         d="M 5047.3,2049.7 V 45 H 4472.93 V 270.301 C 4315.26,101.301 4105.02,0 3872.27,0 3418.02,0 3196.55,315.301 3196.55,720.801 V 2049.7 h 574.37 V 852.102 c 0,-168.903 52.56,-341.602 311.58,-341.602 213.97,0 390.43,138.902 390.43,398 v 1141.2 h 574.37"
         style="fill:#333236;fill-opacity:1;fill-rule:nonzero;stroke:none"
         transform="matrix(0.13333333,0,0,-0.13333333,0,1686.56)" />
      <path
         id="path4"
         d="m 6706.53,2286.2 c -45.08,15 -127.66,41.3 -229.01,41.3 -146.42,0 -217.75,-48.8 -217.75,-180.2 v -97.6 h 416.71 V 1614.2 H 6259.77 V 45 H 5685.4 v 1569.2 h -311.59 v 435.5 h 311.59 v 82.6 c 0,371.6 244.02,634.42 724.54,634.42 131.37,0 251.51,-11.26 356.64,-41.28 l -60.05,-439.24"
         style="fill:#333236;fill-opacity:1;fill-rule:nonzero;stroke:none"
         transform="matrix(0.13333333,0,0,-0.13333333,0,1686.56)" />
      <path
         id="path5"
         d="m 7896.28,1599.2 c -307.83,0 -454.25,-255.3 -454.25,-555.6 0,-300.299 146.42,-548.1 454.25,-548.1 311.59,0 465.51,247.801 465.51,548.1 0,304.1 -157.67,555.6 -465.51,555.6 z M 8361.79,45 V 274 C 8200.37,90.1016 7990.13,0 7749.86,0 c -563.1,0 -912.25,454.199 -912.25,1047.4 0,596.8 349.15,1047.3 912.25,1047.3 244.02,0 450.51,-90 611.93,-274 v 904.74 h 578.12 V 45 h -578.12"
         style="fill:#333236;fill-opacity:1;fill-rule:nonzero;stroke:none"
         transform="matrix(0.13333333,0,0,-0.13333333,0,1686.56)" />
      <path
         id="path6"
         d="m 9461.86,45 v 2004.7 h 574.34 V 45 Z m 0,2252.4 v 428.04 h 574.34 V 2297.4 h -574.34"
         style="fill:#333236;fill-opacity:1;fill-rule:nonzero;stroke:none"
         transform="matrix(0.13333333,0,0,-0.13333333,0,1686.56)" />
      <path
         id="path7"
         d="m 11774.5,1449.1 c -60,33.7 -131.4,60 -225.2,60 -240.3,0 -416.7,-199 -416.7,-495.5 V 45 h -574.4 v 2004.7 h 574.4 v -300.3 c 123.9,202.7 319.1,337.8 533.1,337.8 97.6,0 202.7,-26.3 259,-60 l -150.2,-578.1"
         style="fill:#333236;fill-opacity:1;fill-rule:nonzero;stroke:none"
         transform="matrix(0.13333333,0,0,-0.13333333,0,1686.56)" />
      <path
         id="path8"
         d="m 9218.62,9410.2 c -188.39,226.51 -151.92,571.52 74.87,754.7 223.74,174.8 553.83,124.8 745.01,-95.3 194.4,-211.35 175.1,-516.31 -51.68,-697.8 -229.55,-189.77 -576.22,-179.55 -768.2,38.4"
         style="fill:#a9cfb3;fill-opacity:1;fill-rule:nonzero;stroke:none"
         transform="matrix(0.13333333,0,0,-0.13333333,0,1686.56)" />
      <path
         id="path9"
         d="m 6368.55,9277.37 c -283.13,-91.44 -578.14,61.87 -656.59,352.47 -76.52,294.46 83.69,589.76 355.5,652.96 270.16,57.8 557.72,-117.6 645.28,-382.82 89.78,-261.03 -62.44,-535.61 -344.19,-622.61 z m 2006.99,1008.93 c 7.72,24.9 -2392.72,1419.3 -3548.19,1695.5 C 2186.58,12613.8 496.043,11170.5 80.3203,8762.07 -335.406,6353.06 881.664,4555.63 3290.39,4139.36 c 2409.02,-416 3843.21,701.07 4413.35,1616.77 266.56,427.34 407.71,1120.12 305.52,1975.06 -106.63,893.05 -86.19,1100.22 366.28,2555.11"
         style="fill:#a9cfb3;fill-opacity:1;fill-rule:nonzero;stroke:none"
         transform="matrix(0.13333333,0,0,-0.13333333,0,1686.56)" />
      <path
         id="path10"
         d="m 11230.9,8527.78 c 21.3,-240.05 84,-1014.05 94.5,-1242.21 14.1,-311.87 -106.6,-745.55 -290.6,-1041.67 -575.7,-924.26 -1923.69,-1784.72 -3981.61,-1429.49 -114.32,19.68 -225.76,43.04 -334.54,69.58 -198.54,53.75 -400.12,115.1 -599.58,192.09 -607.74,246.37 -1096.66,619.97 -1438.69,1104.56 -513.52,727.6 -685.62,1687.22 -497.77,2773.92 92.86,538.78 251.95,1016.69 471.5,1424.64 222.58,401.8 477.43,690.3 693.39,887.5 97.89,86.2 200.84,165.4 309.07,236.6 727.33,479.3 1684.74,595.3 2767.56,336.8 855.21,-205.3 2546.27,-1164.3 3147.87,-1482 -326.7,-809.37 -385.3,-1337.25 -341.1,-1830.32 z M 12396,10742.3 c 0,0 -380.3,223.8 -1598.5,884.5 -648.6,352.2 -1594.68,720.1 -2216.75,869 -1268.45,303.3 -2408.18,155 -3295.43,-429.2 -69.41,-45.7 -136.82,-94.2 -202.68,-144.7 l -23.88,-18.3 c -1197.74,-927 -1465.3,-2328.01 -1560.32,-2866.67 -90.86,-514.07 -89.36,-989.7 -38.41,-1409.2 42.8,-406.1 138.81,-789.08 287.21,-1143.44 97.33,-246.34 197.58,-432.28 270.51,-543.91 88.87,-136.16 186.22,-262.15 288.61,-378.57 611.89,-733.39 1515.18,-1218.86 2632.2,-1412.01 2387.46,-412.14 3969.44,632.3 4668.34,1737.77 359.6,568.48 424,1204.92 326.7,2062.89 -111.3,982.55 25.5,1393.3 331.5,2304.84 l 130.9,487"
         style="fill:#a9cfb3;fill-opacity:1;fill-rule:nonzero;stroke:none"
         transform="matrix(0.13333333,0,0,-0.13333333,0,1686.56)" />
    </g>
  </g>
</svg>
