<svg width="157" height="26" viewBox="0 0 157 26" fill="none" xmlns="http://www.w3.org/2000/svg">
<path d="M7.81822 11.4375L13.1861 14.5625V20.8125L7.81822 23.9375L2.45029 20.8125V14.5625L7.81822 11.4375Z" fill="#161225" stroke="#161225" stroke-width="3"/>
<path d="M18.6653 11.4375L24.0332 14.5625V20.8125L18.6653 23.9375L13.2973 20.8125V14.5625L18.6653 11.4375Z" stroke="#161225" stroke-width="3"/>
<path d="M24.2438 2.0625L29.6117 5.1875V11.4375L24.2438 14.5625L18.8758 11.4375V5.1875L24.2438 2.0625Z" stroke="#161225" stroke-width="3"/>
<path d="M36.6402 2.35034L40.979 8.25311L36.7523 14.238L29.8013 12.0341L29.732 4.68712L36.6402 2.35034Z" fill="#161225" stroke="#161225" stroke-width="3"/>
<path d="M55.6307 6.65039C57.2889 6.65039 58.4989 7.00781 59.2606 7.72266C60.0223 8.43164 60.4032 9.41016 60.4032 10.6582C60.4032 11.2207 60.3182 11.7598 60.1483 12.2754C59.9784 12.7852 59.7001 13.2393 59.3134 13.6377C58.9325 14.0361 58.4227 14.3525 57.7841 14.5869C57.1454 14.8154 56.3573 14.9297 55.4198 14.9297H54.2509V19.5H51.5262V6.65039H55.6307ZM55.4901 8.88281H54.2509V12.6973H55.1473C55.6571 12.6973 56.0995 12.6299 56.4745 12.4951C56.8495 12.3604 57.1395 12.1494 57.3446 11.8623C57.5497 11.5752 57.6522 11.2061 57.6522 10.7549C57.6522 10.1221 57.4764 9.65332 57.1249 9.34863C56.7733 9.03809 56.2284 8.88281 55.4901 8.88281ZM68.287 8.7334C67.7655 8.7334 67.3026 8.83594 66.8983 9.04102C66.4999 9.24023 66.163 9.53027 65.8876 9.91113C65.618 10.292 65.413 10.752 65.2723 11.291C65.1317 11.8301 65.0614 12.4365 65.0614 13.1104C65.0614 14.0186 65.1727 14.7949 65.3954 15.4395C65.6239 16.0781 65.9755 16.5674 66.4501 16.9072C66.9247 17.2412 67.537 17.4082 68.287 17.4082C68.8085 17.4082 69.33 17.3496 69.8514 17.2324C70.3788 17.1152 70.9501 16.9482 71.5653 16.7314V19.0166C70.9969 19.251 70.4374 19.418 69.8866 19.5176C69.3358 19.623 68.7177 19.6758 68.0321 19.6758C66.7079 19.6758 65.618 19.4033 64.7626 18.8584C63.913 18.3076 63.2831 17.54 62.8729 16.5557C62.4628 15.5654 62.2577 14.4111 62.2577 13.0928C62.2577 12.1201 62.3895 11.2295 62.6532 10.4209C62.9169 9.6123 63.3036 8.91211 63.8134 8.32031C64.3231 7.72852 64.953 7.27148 65.703 6.94922C66.453 6.62695 67.3143 6.46582 68.287 6.46582C68.9257 6.46582 69.5643 6.54785 70.203 6.71191C70.8475 6.87012 71.4628 7.08984 72.0487 7.37109L71.1698 9.58594C70.6893 9.35742 70.2059 9.1582 69.7196 8.98828C69.2333 8.81836 68.7557 8.7334 68.287 8.7334ZM85.9706 13.0576C85.9706 14.0479 85.8475 14.9502 85.6014 15.7646C85.3553 16.5732 84.9803 17.2705 84.4764 17.8564C83.9784 18.4424 83.3456 18.8936 82.578 19.21C81.8104 19.5205 80.9022 19.6758 79.8534 19.6758C78.8046 19.6758 77.8964 19.5205 77.1288 19.21C76.3612 18.8936 75.7255 18.4424 75.2216 17.8564C74.7235 17.2705 74.3514 16.5703 74.1053 15.7559C73.8593 14.9414 73.7362 14.0361 73.7362 13.04C73.7362 11.71 73.953 10.5527 74.3866 9.56836C74.826 8.57812 75.4999 7.81055 76.4081 7.26562C77.3163 6.7207 78.4706 6.44824 79.871 6.44824C81.2655 6.44824 82.411 6.7207 83.3075 7.26562C84.2098 7.81055 84.8778 8.57812 85.3114 9.56836C85.7509 10.5586 85.9706 11.7217 85.9706 13.0576ZM76.5927 13.0576C76.5927 13.9541 76.704 14.7275 76.9266 15.3779C77.1552 16.0225 77.5096 16.5205 77.9901 16.8721C78.4706 17.2178 79.0917 17.3906 79.8534 17.3906C80.6268 17.3906 81.2538 17.2178 81.7343 16.8721C82.2147 16.5205 82.5634 16.0225 82.7802 15.3779C83.0028 14.7275 83.1141 13.9541 83.1141 13.0576C83.1141 11.71 82.8622 10.6494 82.3583 9.87598C81.8544 9.10254 81.0253 8.71582 79.871 8.71582C79.1034 8.71582 78.4764 8.8916 77.9901 9.24316C77.5096 9.58887 77.1552 10.0869 76.9266 10.7373C76.704 11.3818 76.5927 12.1553 76.5927 13.0576ZM96.2186 15.9316C96.2186 16.6934 96.0341 17.3555 95.6649 17.918C95.2958 18.4805 94.7567 18.9141 94.0477 19.2188C93.3446 19.5234 92.4891 19.6758 91.4813 19.6758C91.036 19.6758 90.5995 19.6465 90.1718 19.5879C89.7499 19.5293 89.3427 19.4443 88.9501 19.333C88.5634 19.2158 88.1942 19.0723 87.8427 18.9023V16.3711C88.452 16.6406 89.0848 16.8838 89.7411 17.1006C90.3973 17.3174 91.0477 17.4258 91.6923 17.4258C92.1376 17.4258 92.495 17.3672 92.7645 17.25C93.0399 17.1328 93.2391 16.9717 93.3622 16.7666C93.4852 16.5615 93.5468 16.3271 93.5468 16.0635C93.5468 15.7412 93.4384 15.4658 93.2216 15.2373C93.0048 15.0088 92.7059 14.7949 92.3251 14.5957C91.9501 14.3965 91.5253 14.1826 91.0507 13.9541C90.7518 13.8135 90.4266 13.6436 90.0751 13.4443C89.7235 13.2393 89.3895 12.9902 89.0731 12.6973C88.7567 12.4043 88.496 12.0498 88.2909 11.6338C88.0917 11.2119 87.9921 10.708 87.9921 10.1221C87.9921 9.35449 88.1678 8.69824 88.5194 8.15332C88.871 7.6084 89.3719 7.19238 90.0223 6.90527C90.6786 6.6123 91.452 6.46582 92.3427 6.46582C93.0106 6.46582 93.6464 6.54492 94.2499 6.70312C94.8593 6.85547 95.495 7.07813 96.1571 7.37109L95.2782 9.48926C94.6864 9.24902 94.1561 9.06445 93.6874 8.93555C93.2186 8.80078 92.7411 8.7334 92.2548 8.7334C91.9149 8.7334 91.6249 8.78906 91.3846 8.90039C91.1444 9.00586 90.9628 9.1582 90.8397 9.35742C90.7167 9.55078 90.6552 9.77637 90.6552 10.0342C90.6552 10.3389 90.743 10.5967 90.9188 10.8076C91.1005 11.0127 91.37 11.2119 91.7274 11.4053C92.0907 11.5986 92.5419 11.8242 93.0809 12.082C93.7372 12.3926 94.2968 12.7178 94.7596 13.0576C95.2284 13.3916 95.5887 13.7871 95.8407 14.2441C96.0927 14.6953 96.2186 15.2578 96.2186 15.9316ZM114.623 19.5H111.16L105.57 9.7793H105.491C105.515 10.1836 105.535 10.5908 105.553 11.001C105.57 11.4111 105.588 11.8213 105.605 12.2314C105.623 12.6357 105.641 13.043 105.658 13.4531V19.5H103.224V6.65039H106.66L112.241 16.2744H112.303C112.291 15.876 112.276 15.4805 112.259 15.0879C112.241 14.6953 112.224 14.3027 112.206 13.9102C112.194 13.5176 112.182 13.125 112.171 12.7324V6.65039H114.623V19.5ZM126.585 14.5693C126.585 15.3896 126.474 16.1162 126.251 16.749C126.034 17.3818 125.715 17.918 125.293 18.3574C124.877 18.791 124.373 19.1191 123.781 19.3418C123.195 19.5645 122.533 19.6758 121.795 19.6758C121.103 19.6758 120.468 19.5645 119.888 19.3418C119.313 19.1191 118.812 18.791 118.385 18.3574C117.963 17.918 117.635 17.3818 117.4 16.749C117.172 16.1162 117.057 15.3896 117.057 14.5693C117.057 13.4795 117.251 12.5566 117.638 11.8008C118.024 11.0449 118.575 10.4707 119.29 10.0781C120.005 9.68555 120.857 9.48926 121.848 9.48926C122.767 9.48926 123.582 9.68555 124.291 10.0781C125.006 10.4707 125.565 11.0449 125.97 11.8008C126.38 12.5566 126.585 13.4795 126.585 14.5693ZM119.791 14.5693C119.791 15.2139 119.861 15.7559 120.002 16.1953C120.142 16.6348 120.362 16.9658 120.661 17.1885C120.96 17.4111 121.349 17.5225 121.83 17.5225C122.305 17.5225 122.688 17.4111 122.981 17.1885C123.28 16.9658 123.497 16.6348 123.632 16.1953C123.772 15.7559 123.843 15.2139 123.843 14.5693C123.843 13.9189 123.772 13.3799 123.632 12.9521C123.497 12.5186 123.28 12.1934 122.981 11.9766C122.682 11.7598 122.293 11.6514 121.812 11.6514C121.103 11.6514 120.588 11.8945 120.266 12.3809C119.949 12.8672 119.791 13.5967 119.791 14.5693ZM134.284 9.48926C134.419 9.48926 134.574 9.49805 134.75 9.51562C134.932 9.52734 135.078 9.54492 135.189 9.56836L134.987 12.082C134.899 12.0527 134.773 12.0322 134.609 12.0205C134.451 12.0029 134.313 11.9941 134.196 11.9941C133.85 11.9941 133.514 12.0381 133.185 12.126C132.863 12.2139 132.573 12.3574 132.315 12.5566C132.057 12.75 131.852 13.0078 131.7 13.3301C131.554 13.6465 131.48 14.0361 131.48 14.499V19.5H128.8V9.67383H130.83L131.225 11.3262H131.357C131.551 10.9922 131.791 10.6875 132.078 10.4121C132.371 10.1309 132.702 9.9082 133.071 9.74414C133.446 9.57422 133.85 9.48926 134.284 9.48926ZM139.848 23.8242C138.476 23.8242 137.428 23.584 136.701 23.1035C135.98 22.6289 135.62 21.9609 135.62 21.0996C135.62 20.5078 135.805 20.0127 136.174 19.6143C136.543 19.2158 137.085 18.9316 137.8 18.7617C137.524 18.6445 137.284 18.4541 137.079 18.1904C136.874 17.9209 136.771 17.6367 136.771 17.3379C136.771 16.9629 136.88 16.6523 137.097 16.4062C137.313 16.1543 137.627 15.9082 138.037 15.668C137.521 15.4453 137.111 15.0879 136.807 14.5957C136.508 14.1035 136.358 13.5234 136.358 12.8555C136.358 12.1406 136.514 11.5342 136.824 11.0361C137.141 10.5322 137.598 10.1484 138.195 9.88477C138.799 9.62109 139.531 9.48926 140.392 9.48926C140.574 9.48926 140.785 9.50098 141.025 9.52441C141.266 9.54785 141.485 9.57422 141.684 9.60352C141.89 9.63281 142.027 9.65625 142.098 9.67383H145.525V11.0361L143.987 11.4316C144.128 11.6484 144.233 11.8799 144.304 12.126C144.374 12.3721 144.409 12.6328 144.409 12.9082C144.409 13.9629 144.04 14.7861 143.302 15.3779C142.569 15.9639 141.55 16.2568 140.243 16.2568C139.932 16.2393 139.64 16.2158 139.364 16.1865C139.229 16.292 139.127 16.4033 139.057 16.5205C138.986 16.6377 138.951 16.7607 138.951 16.8896C138.951 17.0186 139.004 17.127 139.109 17.2148C139.221 17.2969 139.385 17.3613 139.601 17.4082C139.824 17.4492 140.099 17.4697 140.428 17.4697H142.098C143.176 17.4697 143.996 17.7012 144.558 18.1641C145.127 18.627 145.411 19.3066 145.411 20.2031C145.411 21.3516 144.931 22.2422 143.97 22.875C143.015 23.5078 141.641 23.8242 139.848 23.8242ZM139.962 22.0752C140.6 22.0752 141.148 22.0137 141.605 21.8906C142.068 21.7734 142.423 21.6035 142.669 21.3809C142.915 21.1641 143.038 20.9033 143.038 20.5986C143.038 20.3525 142.965 20.1562 142.818 20.0098C142.678 19.8691 142.461 19.7695 142.168 19.7109C141.881 19.6523 141.512 19.623 141.06 19.623H139.672C139.344 19.623 139.048 19.6758 138.784 19.7812C138.526 19.8867 138.321 20.0332 138.169 20.2207C138.016 20.4141 137.94 20.6367 137.94 20.8887C137.94 21.2578 138.116 21.5479 138.468 21.7588C138.825 21.9697 139.323 22.0752 139.962 22.0752ZM140.392 14.6221C140.896 14.6221 141.266 14.4668 141.5 14.1562C141.734 13.8457 141.851 13.4238 141.851 12.8906C141.851 12.2988 141.728 11.8564 141.482 11.5635C141.242 11.2646 140.879 11.1152 140.392 11.1152C139.9 11.1152 139.531 11.2646 139.285 11.5635C139.039 11.8564 138.916 12.2988 138.916 12.8906C138.916 13.4238 139.036 13.8457 139.276 14.1562C139.522 14.4668 139.894 14.6221 140.392 14.6221ZM151.203 9.48926C152.111 9.48926 152.893 9.66504 153.55 10.0166C154.206 10.3623 154.713 10.8662 155.07 11.5283C155.428 12.1904 155.606 12.999 155.606 13.9541V15.2549H149.269C149.299 16.0107 149.524 16.6055 149.946 17.0391C150.374 17.4668 150.966 17.6807 151.722 17.6807C152.349 17.6807 152.923 17.6162 153.444 17.4873C153.966 17.3584 154.502 17.165 155.053 16.9072V18.9814C154.566 19.2217 154.057 19.3975 153.523 19.5088C152.996 19.6201 152.354 19.6758 151.599 19.6758C150.614 19.6758 149.741 19.4941 148.979 19.1309C148.224 18.7676 147.629 18.2139 147.195 17.4697C146.767 16.7256 146.554 15.7881 146.554 14.6572C146.554 13.5088 146.747 12.5537 147.134 11.792C147.526 11.0244 148.071 10.4502 148.768 10.0693C149.466 9.68262 150.277 9.48926 151.203 9.48926ZM151.221 11.3965C150.699 11.3965 150.266 11.5635 149.92 11.8975C149.58 12.2314 149.384 12.7559 149.331 13.4707H153.093C153.087 13.0723 153.014 12.7178 152.873 12.4072C152.738 12.0967 152.533 11.8506 152.258 11.6689C151.988 11.4873 151.642 11.3965 151.221 11.3965Z" fill="#161225"/>
</svg>
