<svg width="5041" height="800" viewBox="0 0 5041 800" fill="none" xmlns="http://www.w3.org/2000/svg">
<path d="M240.272 351.923L405.242 448.077V640.384L240.272 736.538L75.3022 640.384V448.077L240.272 351.923Z" fill="#161225" stroke="#161225" stroke-width="80"/>
<path d="M573.631 351.923L738.6 448.077V640.384L573.631 736.538L408.662 640.384V448.077L573.631 351.923Z" stroke="#161225" stroke-width="80"/>
<path d="M745.072 63.4619L910.041 159.616V351.923L745.072 448.077L580.104 351.923V159.616L745.072 63.4619Z" stroke="#161225" stroke-width="80"/>
<path d="M1126.04 72.3184L1259.39 253.942L1129.49 438.092L915.868 370.28L913.738 144.219L1126.04 72.3184Z" fill="#161225" stroke="#161225" stroke-width="80"/>
<path d="M1704.83 195.373C1755.5 195.373 1792.47 206.294 1815.74 228.137C1839.02 249.8 1850.65 279.699 1850.65 317.834C1850.65 335.021 1848.06 351.493 1842.87 367.248C1837.67 382.824 1829.17 396.7 1817.35 408.874C1805.72 421.049 1790.14 430.716 1770.62 437.878C1751.11 444.86 1727.03 448.352 1698.38 448.352H1662.67V588H1579.41V195.373H1704.83ZM1700.53 263.586H1662.67V380.139H1690.06C1705.63 380.139 1719.15 378.08 1730.61 373.962C1742.07 369.844 1750.93 363.399 1757.2 354.626C1763.46 345.853 1766.6 334.574 1766.6 320.788C1766.6 301.452 1761.23 287.129 1750.48 277.819C1739.74 268.33 1723.09 263.586 1700.53 263.586ZM2091.01 588L1996.48 279.968H1994.06C1994.42 287.308 1994.96 298.409 1995.67 313.269C1996.57 327.95 1997.37 343.615 1998.09 360.266C1998.81 376.916 1999.17 391.955 1999.17 405.383V588H1924.78V195.373H2038.11L2131.03 495.617H2132.64L2231.2 195.373H2344.53V588H2266.91V402.16C2266.91 389.807 2267.09 375.573 2267.45 359.46C2267.99 343.347 2268.61 328.039 2269.33 313.537C2270.05 298.856 2270.58 287.845 2270.94 280.505H2268.53L2167.28 588H2091.01ZM2800 391.149C2800 421.407 2796.24 448.978 2788.72 473.864C2781.2 498.571 2769.74 519.877 2754.34 537.78C2739.12 555.684 2719.79 569.47 2696.33 579.138C2672.88 588.627 2645.13 593.371 2613.08 593.371C2581.03 593.371 2553.28 588.627 2529.83 579.138C2506.38 569.47 2486.95 555.684 2471.55 537.78C2456.33 519.877 2444.97 498.482 2437.45 473.596C2429.93 448.71 2426.17 421.049 2426.17 390.612C2426.17 349.971 2432.79 314.611 2446.04 284.533C2459.47 254.276 2480.06 230.822 2507.81 214.172C2535.56 197.521 2570.83 189.196 2613.62 189.196C2656.23 189.196 2691.23 197.521 2718.62 214.172C2746.19 230.822 2766.6 254.276 2779.85 284.533C2793.28 314.79 2800 350.329 2800 391.149ZM2513.45 391.149C2513.45 418.542 2516.85 442.175 2523.65 462.048C2530.63 481.742 2541.47 496.96 2556.15 507.702C2570.83 518.265 2589.81 523.547 2613.08 523.547C2636.71 523.547 2655.87 518.265 2670.55 507.702C2685.23 496.96 2695.89 481.742 2702.51 462.048C2709.31 442.175 2712.71 418.542 2712.71 391.149C2712.71 349.971 2705.02 317.565 2689.62 293.933C2674.22 270.3 2648.89 258.483 2613.62 258.483C2590.16 258.483 2571.01 263.854 2556.15 274.597C2541.47 285.16 2530.63 300.378 2523.65 320.251C2516.85 339.945 2513.45 363.578 2513.45 391.149ZM3113.13 478.967C3113.13 502.242 3107.49 522.473 3096.21 539.66C3084.93 556.848 3068.46 570.096 3046.8 579.406C3025.31 588.716 2999.17 593.371 2968.38 593.371C2954.77 593.371 2941.43 592.476 2928.36 590.686C2915.47 588.895 2903.03 586.299 2891.04 582.897C2879.22 579.317 2867.94 574.93 2857.2 569.738V492.395C2875.82 500.63 2895.15 508.06 2915.21 514.685C2935.26 521.309 2955.13 524.621 2974.82 524.621C2988.43 524.621 2999.35 522.831 3007.59 519.25C3016 515.669 3022.09 510.746 3025.85 504.479C3029.61 498.213 3031.49 491.052 3031.49 482.995C3031.49 473.148 3028.18 464.733 3021.55 457.751C3014.93 450.769 3005.8 444.234 2994.16 438.146C2982.7 432.059 2969.72 425.524 2955.22 418.542C2946.09 414.245 2936.15 409.053 2925.41 402.966C2914.67 396.7 2904.46 389.09 2894.79 380.139C2885.13 371.187 2877.16 360.355 2870.89 347.644C2864.81 334.753 2861.76 319.356 2861.76 301.452C2861.76 277.998 2867.13 257.946 2877.88 241.296C2888.62 224.646 2903.93 211.934 2923.8 203.161C2943.85 194.209 2967.48 189.733 2994.7 189.733C3015.11 189.733 3034.53 192.15 3052.97 196.984C3071.59 201.639 3091.02 208.443 3111.25 217.395L3084.39 282.116C3066.31 274.776 3050.11 269.136 3035.79 265.197C3021.46 261.079 3006.87 259.021 2992.01 259.021C2981.63 259.021 2972.77 260.721 2965.42 264.123C2958.08 267.346 2952.53 272.001 2948.77 278.088C2945.01 283.996 2943.13 290.889 2943.13 298.767C2943.13 308.076 2945.82 315.954 2951.19 322.399C2956.74 328.666 2964.98 334.753 2975.9 340.661C2987 346.569 3000.78 353.462 3017.26 361.34C3037.31 370.829 3054.41 380.765 3068.55 391.149C3082.87 401.354 3093.88 413.439 3101.58 427.404C3109.28 441.19 3113.13 458.378 3113.13 478.967ZM3675.48 588H3569.67L3398.87 290.979H3396.46C3397.17 303.332 3397.8 315.775 3398.33 328.308C3398.87 340.84 3399.41 353.373 3399.95 365.905C3400.48 378.259 3401.02 390.702 3401.56 403.234V588H3327.17V195.373H3432.17L3602.71 489.44H3604.58C3604.23 477.266 3603.78 465.181 3603.24 453.186C3602.71 441.19 3602.17 429.195 3601.63 417.199C3601.27 405.204 3600.91 393.208 3600.56 381.213V195.373H3675.48V588ZM4040.99 437.341C4040.99 462.406 4037.58 484.606 4030.78 503.942C4024.16 523.278 4014.4 539.66 4001.51 553.088C3988.8 566.337 3973.4 576.363 3955.32 583.166C3937.41 589.969 3917.18 593.371 3894.62 593.371C3873.5 593.371 3854.07 589.969 3836.35 583.166C3818.8 576.363 3803.49 566.337 3790.42 553.088C3777.53 539.66 3767.51 523.278 3760.35 503.942C3753.36 484.606 3749.87 462.406 3749.87 437.341C3749.87 404.04 3755.78 375.842 3767.6 352.746C3779.41 329.65 3796.24 312.105 3818.09 300.109C3839.93 288.114 3865.98 282.116 3896.24 282.116C3924.34 282.116 3949.23 288.114 3970.89 300.109C3992.74 312.105 4009.83 329.65 4022.19 352.746C4034.72 375.842 4040.99 404.04 4040.99 437.341ZM3833.39 437.341C3833.39 457.035 3835.54 473.596 3839.84 487.023C3844.14 500.451 3850.85 510.567 3859.98 517.37C3869.11 524.174 3881.02 527.575 3895.7 527.575C3910.2 527.575 3921.93 524.174 3930.88 517.37C3940.01 510.567 3946.63 500.451 3950.75 487.023C3955.05 473.596 3957.2 457.035 3957.2 437.341C3957.2 417.468 3955.05 400.996 3950.75 387.927C3946.63 374.678 3940.01 364.742 3930.88 358.117C3921.75 351.493 3909.84 348.181 3895.16 348.181C3873.5 348.181 3857.74 355.611 3847.9 370.471C3838.23 385.331 3833.39 407.621 3833.39 437.341ZM4276.24 282.116C4280.36 282.116 4285.1 282.385 4290.47 282.922C4296.02 283.28 4300.5 283.817 4303.9 284.533L4297.72 361.34C4295.04 360.445 4291.19 359.818 4286.18 359.46C4281.34 358.923 4277.14 358.654 4273.55 358.654C4262.99 358.654 4252.7 359.997 4242.67 362.683C4232.82 365.368 4223.96 369.755 4216.08 375.842C4208.21 381.75 4201.94 389.628 4197.29 399.475C4192.81 409.143 4190.57 421.049 4190.57 435.192V588H4108.66V287.756H4170.7L4182.78 338.244H4186.81C4192.72 328.039 4200.06 318.729 4208.83 310.314C4217.78 301.721 4227.9 294.917 4239.18 289.904C4250.64 284.712 4262.99 282.116 4276.24 282.116ZM4446.24 720.129C4404.34 720.129 4372.29 712.788 4350.09 698.107C4328.07 683.605 4317.06 663.195 4317.06 636.877C4317.06 618.794 4322.7 603.666 4333.98 591.491C4345.26 579.317 4361.82 570.633 4383.66 565.441C4375.25 561.861 4367.91 556.042 4361.64 547.985C4355.37 539.75 4352.24 531.066 4352.24 521.936C4352.24 510.477 4355.55 500.988 4362.18 493.469C4368.8 485.77 4378.38 478.251 4390.91 470.91C4375.16 464.107 4362.63 453.186 4353.32 438.146C4344.18 423.107 4339.62 405.383 4339.62 384.973C4339.62 363.13 4344.36 344.6 4353.85 329.382C4363.52 313.985 4377.49 302.258 4395.75 294.201C4414.19 286.145 4436.57 282.116 4462.89 282.116C4468.44 282.116 4474.88 282.474 4482.22 283.19C4489.56 283.907 4496.28 284.712 4502.36 285.607C4508.63 286.503 4512.84 287.219 4514.99 287.756H4619.72V329.382L4572.72 341.467C4577.02 348.091 4580.24 355.163 4582.39 362.683C4584.54 370.202 4585.62 378.169 4585.62 386.584C4585.62 418.811 4574.34 443.965 4551.78 462.048C4529.4 479.951 4498.25 488.903 4458.32 488.903C4448.83 488.366 4439.88 487.65 4431.46 486.755C4427.35 489.978 4424.21 493.379 4422.07 496.96C4419.92 500.541 4418.84 504.3 4418.84 508.239C4418.84 512.178 4420.45 515.49 4423.68 518.176C4427.08 520.682 4432.09 522.652 4438.72 524.084C4445.52 525.337 4453.93 525.964 4463.96 525.964H4514.99C4547.93 525.964 4572.99 533.036 4590.18 547.18C4607.55 561.324 4616.23 582.092 4616.23 609.484C4616.23 644.576 4601.55 671.789 4572.19 691.125C4543 710.461 4501.02 720.129 4446.24 720.129ZM4449.73 666.687C4469.24 666.687 4485.98 664.807 4499.95 661.047C4514.09 657.466 4524.92 652.274 4532.44 645.471C4539.96 638.846 4543.72 630.879 4543.72 621.569C4543.72 614.05 4541.48 608.052 4537.01 603.576C4532.71 599.279 4526.09 596.236 4517.13 594.445C4508.36 592.655 4497.08 591.76 4483.3 591.76H4440.86C4430.84 591.76 4421.8 593.371 4413.74 596.594C4405.86 599.816 4399.6 604.292 4394.94 610.021C4390.29 615.93 4387.96 622.733 4387.96 630.432C4387.96 641.711 4393.33 650.573 4404.07 657.019C4414.99 663.464 4430.21 666.687 4449.73 666.687ZM4462.89 438.952C4478.28 438.952 4489.56 434.208 4496.72 424.719C4503.89 415.23 4507.47 402.339 4507.47 386.047C4507.47 367.964 4503.71 354.447 4496.19 345.495C4488.85 336.364 4477.75 331.799 4462.89 331.799C4447.85 331.799 4436.57 336.364 4429.05 345.495C4421.53 354.447 4417.77 367.964 4417.77 386.047C4417.77 402.339 4421.44 415.23 4428.78 424.719C4436.3 434.208 4447.67 438.952 4462.89 438.952ZM4793.21 282.116C4820.96 282.116 4844.86 287.487 4864.91 298.229C4884.96 308.793 4900.45 324.19 4911.37 344.421C4922.29 364.652 4927.75 389.359 4927.75 418.542V458.288H4734.13C4735.02 481.384 4741.91 499.556 4754.8 512.805C4767.87 525.874 4785.96 532.409 4809.05 532.409C4828.21 532.409 4845.76 530.44 4861.69 526.501C4877.62 522.562 4894.01 516.654 4910.83 508.776V572.155C4895.97 579.496 4880.4 584.867 4864.11 588.269C4847.99 591.67 4828.39 593.371 4805.29 593.371C4775.21 593.371 4748.54 587.821 4725.26 576.721C4702.17 565.62 4684 548.701 4670.75 525.964C4657.68 503.226 4651.14 474.58 4651.14 440.026C4651.14 404.935 4657.05 375.752 4668.87 352.478C4680.86 329.024 4697.51 311.478 4718.82 299.841C4740.12 288.024 4764.92 282.116 4793.21 282.116ZM4793.75 340.393C4777.81 340.393 4764.56 345.495 4754 355.7C4743.61 365.905 4737.62 381.929 4736.01 403.771H4850.95C4850.77 391.597 4848.53 380.765 4844.23 371.276C4840.12 361.787 4833.85 354.268 4825.43 348.718C4817.2 343.168 4806.64 340.393 4793.75 340.393Z" fill="#161225"/>
</svg>
